<?xml version="1.0" encoding="UTF-8"?><svg id="Ebene_2" xmlns="http://www.w3.org/2000/svg" viewBox="0 0 400.35 102.26"><defs><style>.cls-1{fill:#f7a40b;}.cls-2{fill:#16b3e9;}.cls-3{fill:#1f92d1;}.cls-4{fill:#394049;}.cls-5{fill:#00913f;}.cls-6{fill:#4fb04d;}</style></defs><g id="Ebene_1-2"><path class="cls-4" d="m83.22,1.86h15.18v5.93C102.61,2.71,108.92-.16,115.52,0c19.16,0,26.36,16.83,26.36,29.38,0,15.57-10.9,28.31-26.27,28.31-9.73,0-14.3-4.67-16.24-6.71v22.86h-16.15V1.86Zm42.51,26.95c0-6.32-4.67-13.72-13.52-13.72-3.67-.03-7.19,1.45-9.73,4.09-2.48,2.67-3.84,6.19-3.79,9.83-.09,7.43,5.85,13.53,13.28,13.62.08,0,.16,0,.24,0,8.46,0,13.52-6.91,13.52-13.72v-.1Z"/><path class="cls-4" d="m148.27,2.06h15.18v6c1.56-2.92,4.38-7.88,13.72-7.88v16.28h-.58c-8.27,0-12.16,3-12.16,10.6v29h-16.16V2.06Z"/><path class="cls-4" d="m179.23,28.71C179.23,15.58,188.67.11,208.32.11s29.09,15.47,29.09,28.7-9.44,28.7-29.09,28.7-29.09-15.47-29.09-28.7v-.1Zm16.15.19c0,7.78,5.93,13.52,12.94,13.52s12.94-5.74,12.94-13.62-5.93-13.61-12.94-13.61-12.94,5.74-12.94,13.62v.09Z"/><path class="cls-4" d="m237.41,2.06h16.73l8.27,33.56,8.85-33.56h13.62l9.11,33.56,8.07-33.56h16.64l-16.54,54h-15l-9.17-34.93-9,34.92h-15L237.41,2.06Z"/><path class="cls-4" d="m324.11,2.06h16.15v54h-16.15V2.06Z"/><path class="cls-4" d="m384.14,31.6V2.04h16.21v54h-14.85l-19.07-28.9v28.91h-16.15V2.05h14.53l19.33,29.55Z"/><path class="cls-6" d="m83.22,91.61c-16.03-24.87-49.19-32.03-74.06-16,16.03,24.87,49.19,32.03,74.06,16Z"/><path class="cls-2" d="m72.55,34.1c-28.97-6.04-57.35,12.54-63.39,41.51,28.96,6.05,57.34-12.53,63.39-41.49,0,0,0-.01,0-.02Z"/><path class="cls-1" d="m31.64,42.13c2.98-14.15.1-28.91-8-40.9C-.9,17.77-7.38,51.07,9.16,75.6c0,0,0,0,0,0,2.83-13.67,10.9-25.68,22.48-33.48Z"/><path class="cls-5" d="m49.13,68.19c-13.79-2.9-28.17-.23-40,7.42,13.79,2.9,28.17.23,40-7.42Z"/><path class="cls-3" d="m31.65,42.13c-11.58,7.79-19.65,19.81-22.49,33.48,11.58-7.79,19.66-19.81,22.49-33.48Z"/><path class="cls-2" d="m300.56,95.48c-1.29,1.68-2.18,3.17-4.8,4.46-.15,0-.2-.35-.35-.54-.4.4-.54,1.39-1.29,1.73-1.34.64-3.76,1.14-4.06,1.14-.4,0-1.78-.64-2.57-1.04-3.57-1.73-4.75-4.36-4.75-7.28-.05-3.52.89-4.46,1.24-7.08-1.39.45-3.02.89-4.01,1.88-.69.69-2.23,3.47-3.52,4.75-1.29,1.54-7.03,7.82-11.49,8.62-1.24.15-1.98-.2-2.43-.2-1.29,0-3.66-2.72-3.66-3.52,0-2.43,5.64-7.87,8.17-7.87.45,0,0,.15.45.15.54,0,.3-.59.69-.59.45,0,.4.2.59.2.3-1.24,5.74-2.48,7.62-3.42,1.19-.59,2.38-6.39,2.38-7.77,0-.99-.74-1.73-1.49-1.73-1.68,0-4.16,2.13-5.84,3.66-.94.84-5.3,6.09-7.03,9.41-.15.05,0,.25-.59.25-.79,0-2.23-2.48-2.23-2.92,0-.35,5.25-11.39,6.19-13.42.59-2.18,5.64-15.4,6.44-15.4.69,0,2.33,1.44,2.72,2.18l-7.33,17.18c2.28-1.88,3.91-3.47,6.29-3.47.4,0,1.29,0,1.83.2,2.33,1.04,4.26,3.66,4.26,5.15.15,1.44,0,3.07-.2,4.51,3.37-.94,4.31-2.18,4.85-2.48l.54-1.19c.35-.64.79-1.54,1.24-2.28,1.68-3.52,3.57-5.99,6.04-9.36.3-.59,3.61-4.41,5.3-4.41,1.54,0,3.37,1.78,3.37,2.87,0,2.33-1.63,4.7-2.33,5.3-.05.15.2.35.05.54-.74.74-1.39,1.24-2.03,1.78,0,1.19-1.54,2.48-2.43,3.22-1.49,1.58-2.08,1.68-3.32,2.92-.89.79-3.02,2.08-4.01,3.22-1.04,1.24-1.63,3.17-2.38,5.69-.25.79-.5,3.32-.5,3.76,0,.99.59,5.45,2.62,5.45,3.47,0,7.97-3.81,10.89-6.49.99-.99,2.28-2.72,2.77-2.72.4-.05.79.3,1.14.54-.64,1.44-1.68,2.43-3.07,4.41Zm-30.6-3.42c-.4.25-.45.3-1.44.74-1.73.64-6.19,4.36-6.19,5.89,0,.45.45.45.59.69,4.01-.89,8.47-5.74,11.19-8.86-1.34.4-3.02,1.19-4.16,1.54Zm21.69-12.53c3.27-2.48,3.27-2.13,5.1-4.51,1.14-1.04,1.68-2.13,2.28-2.92.74-.99.84-2.08.59-2.72-2.77,1.58-5.99,6.98-7.97,10.15Z"/><path class="cls-2" d="m327.2,94.89c-.2.2-.59.05-.99.5-.25.79-2.38,4.16-4.51,4.8-.99.35-1.14.35-1.58.35-1.73,0-4.51-2.33-4.9-4.26-.2-1.04-.45-2.03-.5-3.22-1.83,2.48-4.95,5.35-6.54,6.68-2.97,1.14-5.5-.3-6.19-1.39-.54-.79-.94-2.38-.94-2.82,0-3.91,2.67-9.41,4.26-12.82.15-.15.45-.05.59-.25-.05-.64.3-1.68.54-1.68.45,0,.1.2.5.2,0-.74.2-1.63.35-2.57.2,0,0-.2.54-.2.99,0,3.12,1.24,3.12,2.08,0,.1-6.44,10.45-6.44,15.99,0,.4,0,1.19.45,1.19,2.82,0,13.86-15.1,14.46-17.73.15-.45.74-.64,1.19-.64.59,0,2.62,1.63,2.62,1.83,0,.4-.35.74-.5,1.09-1.83,3.71-4.26,8.81-4.26,12.97,0,.35.3,2.23.84,2.48,1.58-.54,5.2-4.31,5.84-4.95.35.2.59.2,1.14.2.45,0,.05-.15.2-.3-.05-.99.89-2.18,1.93-3.17h.69c0,.2.2.15.2.59,0,1.39-2.03,4.95-2.13,5.05Z"/><path class="cls-2" d="m376.97,95.08c-.25.79-1.88,2.48-2.23,2.48-.5,0,.1-.2-.4-.2-.15,0-3.02,2.67-5.84,3.22-.4,0-1.58.45-3.57-.15-2.87-.64-4.65-3.02-4.9-3.96-.99.4-5.05,2.28-8.02.79-3.32-1.73-3.47-5-3.57-6.09-1.49.74-6.14,7.03-7.92,7.43-1.93.5-3.27-3.02-3.27-3.96,0-.4.45-2.08.99-3.81l.69-1.83c-1.14.74-2.87,3.07-3.81,4.26-.79,1.19-3.42,5.69-4.75,5.69-1.63,0-3.42-3.02-3.42-3.81,0-.35,1.83-5.05,3.07-7.58l.94-2.77c-.4-1.83,2.13-5.94,2.48-6.19.94-.54,2.97,1.53,3.12,2.33l-2.77,6.93-.79,1.68c.15.3,1.73-1.58,2.23-1.98.69-.54,3.22-3.57,5.45-5.4.15-.4,2.13-2.87,3.22-2.87.5,0,2.53.89,3.07,1.58-1.58,4.36-4.26,8.22-5.59,12.87l1.24-1.44c2.13-2.13,2.43-2.87,4.01-4.46,1.83-1.93,3.86-5.1,4.36-5.1,1.14,0,2.33,1.93,2.33,2.33,0,.54-.79,5.64-.79,6.19,0,1.83.2,3.37,1.93,3.37,1.24,0,4.46-.99,5-1.83-.54-4.21,5.94-13.52,11.74-13.52,1.98,0,3.32,2.67,3.32,3.52,0,4.65-10.1,11.14-11.14,11.98,0,2.33,1.24,2.77,2.57,2.77,3.37,0,11.04-5.4,13.32-7.43.79-.05.69,1.14.69,1.19,0,1.14-2.43,3.37-2.97,3.76Zm-6.54-11.83s-.05-.05-.1-.05c-.74-.25-5,3.37-5.94,5.94l-.59,1.54c.25-.15,6.78-5.59,6.78-7.03,0-.15-.05-.3-.15-.4Z"/><path class="cls-2" d="m397.52,86.32l-.84.15c-.54.1-.94.1-1.29.05-.4-.15-.4-.3-.4-.74.1-.3,1.09-3.22,1.09-3.62.05-.4-.05-.45-.25-.59h-.45c-2.38.54-4.21,1.73-5.79,3.52-1.58,1.73-2.77,3.17-4.31,6.34-.64,1.29-2.38,6.58-2.87,8.12-.25.74-.69.74-1.24.74-.74-.15-2.77-1.93-2.67-2.67,0-.25,3.96-12.28,5.94-18.47.15-.35.69-1.09,1.09-1.09,1.24.15,2.92,1.68,2.92,2.13,0,.4-1.34,2.62-1.34,3.47.94-2.23,6.34-5.54,8.71-5.4,1.34.15,4.65,1.44,4.51,3.52-.15.94-1.63,3.96-2.82,4.55Z"/></g></svg>