<svg version="1.2" xmlns="http://www.w3.org/2000/svg" viewBox="0 0 401 103" width="401" height="103">
	<defs>
		<linearGradient id="g1" x2="1" gradientUnits="userSpaceOnUse" gradientTransform="matrix(153,0,0,42,246,81)">
			<stop offset="0" stop-color="#16b3e9"/>
			<stop offset="1" stop-color="#e118ff"/>
		</linearGradient>
	</defs>
	<style>
		.s0 { fill: #394049 } 
		.s1 { fill: #4fb04d } 
		.s2 { fill: #16b3e9 } 
		.s3 { fill: #f7a40b } 
		.s4 { fill: #00913f } 
		.s5 { fill: #1f92d1 } 
		.s6 { fill: url(#g1) } 
	</style>
	<g id="Ebene_1-2">
		<path class="s0" d="m83.22 1.86h15.18v5.93c4.21-5.08 10.52-7.95 17.12-7.79 19.16 0 26.36 16.83 26.36 29.38 0 15.57-10.9 28.31-26.27 28.31-9.73 0-14.3-4.67-16.24-6.71v22.86h-16.15zm42.51 26.95c0-6.32-4.67-13.72-13.52-13.72-3.67-0.03-7.19 1.45-9.73 4.09-2.48 2.67-3.84 6.19-3.79 9.83-0.09 7.43 5.85 13.53 13.28 13.62q0.12 0 0.24 0c8.46 0 13.52-6.91 13.52-13.72z"/>
		<path class="s0" d="m148.27 2.06h15.18v6c1.56-2.92 4.38-7.88 13.72-7.88v16.28h-0.58c-8.27 0-12.16 3-12.16 10.6v29h-16.16z"/>
		<path class="s0" d="m179.23 28.71c0-13.13 9.44-28.6 29.09-28.6 19.65 0 29.09 15.47 29.09 28.7 0 13.23-9.44 28.7-29.09 28.7-19.65 0-29.09-15.47-29.09-28.7zm16.15 0.19c0 7.78 5.93 13.52 12.94 13.52 7.01 0 12.94-5.74 12.94-13.62 0-7.88-5.93-13.61-12.94-13.61-7.01 0-12.94 5.74-12.94 13.62z"/>
		<path class="s0" d="m237.41 2.06h16.73l8.27 33.56 8.85-33.56h13.62l9.11 33.56 8.07-33.56h16.64l-16.54 54h-15l-9.17-34.93-9 34.92h-15z"/>
		<path class="s0" d="m324.11 2.06h16.15v54h-16.15z"/>
		<path class="s0" d="m384.14 31.6v-29.56h16.21v54h-14.85l-19.07-28.9v28.91h-16.15v-54h14.53z"/>
		<path class="s1" d="m83.22 91.61c-16.03-24.87-49.19-32.03-74.06-16 16.03 24.87 49.19 32.03 74.06 16z"/>
		<path class="s2" d="m72.55 34.1c-28.97-6.04-57.35 12.54-63.39 41.51 28.96 6.05 57.34-12.53 63.39-41.49q0 0 0-0.02z"/>
		<path class="s3" d="m31.64 42.13c2.98-14.15 0.1-28.91-8-40.9-24.54 16.54-31.02 49.84-14.48 74.37 2.83-13.67 10.9-25.68 22.48-33.48z"/>
		<path class="s4" d="m49.13 68.19c-13.79-2.9-28.17-0.23-40 7.42 13.79 2.9 28.17 0.23 40-7.42z"/>
		<path class="s5" d="m31.65 42.13c-11.58 7.79-19.65 19.81-22.49 33.48 11.58-7.79 19.66-19.81 22.49-33.48z"/>
		<g id="Ordner 1">
			<path class="s2" d="m144.56 96.48c-1.29 1.68-2.18 3.17-4.8 4.46-0.15 0-0.2-0.35-0.35-0.54-0.4 0.4-0.54 1.39-1.29 1.73-1.34 0.64-3.76 1.14-4.06 1.14-0.4 0-1.78-0.64-2.57-1.04-3.57-1.73-4.75-4.36-4.75-7.28-0.05-3.52 0.89-4.46 1.24-7.08-1.39 0.45-3.02 0.89-4.01 1.88-0.69 0.69-2.23 3.47-3.52 4.75-1.29 1.54-7.03 7.82-11.49 8.62-1.24 0.15-1.98-0.2-2.43-0.2-1.29 0-3.66-2.72-3.66-3.52 0-2.43 5.64-7.87 8.17-7.87 0.45 0 0 0.15 0.45 0.15 0.54 0 0.3-0.59 0.69-0.59 0.45 0 0.4 0.2 0.59 0.2 0.3-1.24 5.74-2.48 7.62-3.42 1.19-0.59 2.38-6.39 2.38-7.77 0-0.99-0.74-1.73-1.49-1.73-1.68 0-4.16 2.13-5.84 3.66-0.94 0.84-5.3 6.09-7.03 9.41-0.15 0.05 0 0.25-0.59 0.25-0.79 0-2.23-2.48-2.23-2.92 0-0.35 5.25-11.39 6.19-13.42 0.59-2.18 5.64-15.4 6.44-15.4 0.69 0 2.33 1.44 2.72 2.18l-7.33 17.18c2.28-1.88 3.91-3.47 6.29-3.47 0.4 0 1.29 0 1.83 0.2 2.33 1.04 4.26 3.66 4.26 5.15 0.15 1.44 0 3.07-0.2 4.51 3.37-0.94 4.31-2.18 4.85-2.48l0.54-1.19c0.35-0.64 0.79-1.54 1.24-2.28 1.68-3.52 3.57-5.99 6.04-9.36 0.3-0.59 3.61-4.41 5.3-4.41 1.54 0 3.37 1.78 3.37 2.87 0 2.33-1.63 4.7-2.33 5.3-0.05 0.15 0.2 0.35 0.05 0.54-0.74 0.74-1.39 1.24-2.03 1.78 0 1.19-1.54 2.48-2.43 3.22-1.49 1.58-2.08 1.68-3.32 2.92-0.89 0.79-3.02 2.08-4.01 3.22-1.04 1.24-1.63 3.17-2.38 5.69-0.25 0.79-0.5 3.32-0.5 3.76 0 0.99 0.59 5.45 2.62 5.45 3.47 0 7.97-3.81 10.89-6.49 0.99-0.99 2.28-2.72 2.77-2.72 0.4-0.05 0.79 0.3 1.14 0.54-0.64 1.44-1.68 2.43-3.07 4.41zm-30.6-3.42c-0.4 0.25-0.45 0.3-1.44 0.74-1.73 0.64-6.19 4.36-6.19 5.89 0 0.45 0.45 0.45 0.59 0.69 4.01-0.89 8.47-5.74 11.19-8.86-1.34 0.4-3.02 1.19-4.16 1.54zm21.69-12.53c3.27-2.48 3.27-2.13 5.1-4.51 1.14-1.04 1.68-2.13 2.28-2.92 0.74-0.99 0.84-2.08 0.59-2.72-2.77 1.58-5.99 6.98-7.97 10.15z"/>
			<path class="s2" d="m171.2 95.89c-0.2 0.2-0.59 0.05-0.99 0.5-0.25 0.79-2.38 4.16-4.51 4.8-0.99 0.35-1.14 0.35-1.58 0.35-1.73 0-4.51-2.33-4.9-4.26-0.2-1.04-0.45-2.03-0.5-3.22-1.83 2.48-4.95 5.35-6.54 6.68-2.97 1.14-5.5-0.3-6.19-1.39-0.54-0.79-0.94-2.38-0.94-2.82 0-3.91 2.67-9.41 4.26-12.82 0.15-0.15 0.45-0.05 0.59-0.25-0.05-0.64 0.3-1.68 0.54-1.68 0.45 0 0.1 0.2 0.5 0.2 0-0.74 0.2-1.63 0.35-2.57 0.2 0 0-0.2 0.54-0.2 0.99 0 3.12 1.24 3.12 2.08 0 0.1-6.44 10.45-6.44 15.99 0 0.4 0 1.19 0.45 1.19 2.82 0 13.86-15.1 14.46-17.73 0.15-0.45 0.74-0.64 1.19-0.64 0.59 0 2.62 1.63 2.62 1.83 0 0.4-0.35 0.74-0.5 1.09-1.83 3.71-4.26 8.81-4.26 12.97 0 0.35 0.3 2.23 0.84 2.48 1.58-0.54 5.2-4.31 5.84-4.95 0.35 0.2 0.59 0.2 1.14 0.2 0.45 0 0.05-0.15 0.2-0.3-0.05-0.99 0.89-2.18 1.93-3.17h0.69c0 0.2 0.2 0.15 0.2 0.59 0 1.39-2.03 4.95-2.13 5.05z"/>
			<path class="s2" d="m220.97 96.08c-0.25 0.79-1.88 2.48-2.23 2.48-0.5 0 0.1-0.2-0.4-0.2-0.15 0-3.02 2.67-5.84 3.22-0.4 0-1.58 0.45-3.57-0.15-2.87-0.64-4.65-3.02-4.9-3.96-0.99 0.4-5.05 2.28-8.02 0.79-3.32-1.73-3.47-5-3.57-6.09-1.49 0.74-6.14 7.03-7.92 7.43-1.93 0.5-3.27-3.02-3.27-3.96 0-0.4 0.45-2.08 0.99-3.81l0.69-1.83c-1.14 0.74-2.87 3.07-3.81 4.26-0.79 1.19-3.42 5.69-4.75 5.69-1.63 0-3.42-3.02-3.42-3.81 0-0.35 1.83-5.05 3.07-7.58l0.94-2.77c-0.4-1.83 2.13-5.94 2.48-6.19 0.94-0.54 2.97 1.53 3.12 2.33l-2.77 6.93-0.79 1.68c0.15 0.3 1.73-1.58 2.23-1.98 0.69-0.54 3.22-3.57 5.45-5.4 0.15-0.4 2.13-2.87 3.22-2.87 0.5 0 2.53 0.89 3.07 1.58-1.58 4.36-4.26 8.22-5.59 12.87l1.24-1.44c2.13-2.13 2.43-2.87 4.01-4.46 1.83-1.93 3.86-5.1 4.36-5.1 1.14 0 2.33 1.93 2.33 2.33 0 0.54-0.79 5.64-0.79 6.19 0 1.83 0.2 3.37 1.93 3.37 1.24 0 4.46-0.99 5-1.83-0.54-4.21 5.94-13.52 11.74-13.52 1.98 0 3.32 2.67 3.32 3.52 0 4.65-10.1 11.14-11.14 11.98 0 2.33 1.24 2.77 2.57 2.77 3.37 0 11.04-5.4 13.32-7.43 0.79-0.05 0.69 1.14 0.69 1.19 0 1.14-2.43 3.37-2.97 3.76zm-6.54-11.83c0 0-0.05-0.05-0.1-0.05-0.74-0.25-5 3.37-5.94 5.94l-0.59 1.54c0.25-0.15 6.78-5.59 6.78-7.03q0-0.24-0.15-0.4z"/>
			<path class="s2" d="m241.52 87.32l-0.84 0.15c-0.54 0.1-0.94 0.1-1.29 0.05-0.4-0.15-0.4-0.3-0.4-0.74 0.1-0.3 1.09-3.22 1.09-3.62 0.05-0.4-0.05-0.45-0.25-0.59h-0.45c-2.38 0.54-4.21 1.73-5.79 3.52-1.58 1.73-2.77 3.17-4.31 6.34-0.64 1.29-2.38 6.58-2.87 8.12-0.25 0.74-0.69 0.74-1.24 0.74-0.74-0.15-2.77-1.93-2.67-2.67 0-0.25 3.96-12.28 5.94-18.47 0.15-0.35 0.69-1.09 1.09-1.09 1.24 0.15 2.92 1.68 2.92 2.13 0 0.4-1.34 2.62-1.34 3.47 0.94-2.23 6.34-5.54 8.71-5.4 1.34 0.15 4.65 1.44 4.51 3.52-0.15 0.94-1.63 3.96-2.82 4.55z"/>
		</g>
		<path id="Premium" class="s6" aria-label="Premium"  d="m252.3 94.8q-0.2 0.4-0.3 1-0.1 0.6-0.3 0.9-0.1 0.5-0.3 0.8-0.2 0.3-0.3 0.9-0.1 0.4 0 0.9 0.1 0.5 0 0.8 0 0.1-0.2 0.4-0.1 0.1 0 0.4-0.7 0.4-1.3 0.3-0.6-0.1-1-0.5-0.2 0.1-0.4 0-0.1-0.1-0.3-0.3-0.2-0.1-0.2-0.3 0-0.3-0.1-0.5-0.2-0.9-0.3-1.1-0.1-0.3 0-0.7 0.1-0.7 0.4-1.1 0.2-0.4 0.5-1 0.2-0.8 0.5-1.3 0.2-0.6 0.5-1.2 0-0.1 0.1-0.3l0.2-0.3q0.2-0.4 0.2-0.5l0.2-0.4q0-0.1 0.1-0.2 0.1-0.2 0.1-0.4 0-0.1 0.1-0.3 0.1-0.1 0.1-0.2 0.1-0.3 0.2-0.6l0.3-0.5q0-0.1 0-0.2 0 0 0.1-0.1 0-0.1 0.1-0.3 0-0.3 0.1-0.4 0.1-0.1 0.1-0.5 0.2-0.4 0.4-0.7 0.1-0.3 0.4-0.6l0.7-1.5q0.2-0.5 0.4-1.1 0-0.2 0.1-0.4l0.2-0.4q0.1-0.2 0.1-0.4 0-0.2 0.2-0.3 0.3-1.1 0.5-1.7 0.2-0.6 0.4-1.2 0.1-0.4 0.2-0.5 0.1-0.2 0.2-0.2 0.1-0.4 0.2-0.7 0.1-0.4 0.2-0.5 0.2-0.5 0.2-0.9 0.3-0.6 0.5-1 0.2-0.5 0.4-1.2 0.1-0.2 0.2-0.4 0.1-0.2 0.2-0.4 0.1-0.2 0.1-0.3 0.1-0.2 0.1-0.3l0.3-0.7q0.2-0.3 0.4-0.9 0.3-0.7 0.6-1.3 0.3-0.5 0.6-1.2 0.2-0.8 0.3-1 0.2-0.3 0.2-0.5-0.3 0.1-0.6 0.3-0.3 0.1-0.5 0.2-0.7 0.3-1.4 0.2-0.4-0.1-0.6 0-0.1 0.1-0.3 0.1-0.3 0.1-0.4 0.1-0.1 0-0.3 0.1-0.3 0.1-0.6 0.3-0.2 0.1-0.4 0.1-0.2 0.2-0.5 0 0-0.2 0-0.4 0-0.3 0.1-0.5 0-0.5 0.2-0.8 1-1.1 2.2-1.8 1.2-0.8 2.5-1.5 0.5-0.2 0.8-0.3 0.4-0.1 0.7-0.4 0.4-0.9 0.8-1.6 0.3-0.8 0.8-1.5 0.5-0.3 0.4-0.2 0 0 0.2 0 0.2 0.1 0.4 0.6 0.1 0.2 0.1 0.5 0.1 0.2 0.3 0.2 0.1 0.1 0.3 0 0.2-0.1 0.3-0.1 0.4-0.1 0.7-0.2 0.1-0.1 0.4 0 0.2-0.1 0.5-0.2 0.3 0 0.5-0.1 0.3-0.1 0.5-0.2 0.2-0.1 0.5-0.1 1.1-0.1 2.3 0.2 0.1 0.1 0.4 0.3l0.4 0.2q0.4 0.3 0.6 0.3 0.3 0.1 0.5 0.4 0.4 0.5 0.7 1.1 0.1 0 0.2 0.2 0.1 0.1 0.3 0.2 0.1 0.3 0.2 0.6 0.2 0.3 0.3 0.5 0.2 0.5 0.3 1.2 0.1 0.9 0 1.8-0.1 0.5-0.2 1 0 0.4-0.1 0.8 0 0.3-0.1 0.5 0 0.3-0.1 0.5 0 0.2 0 0.3 0 0.2 0 0.4 0 0.6-0.2 1.3-0.1 0.5-0.2 1.1-0.4 1.5-0.7 2.9-0.4 1.4-1.3 2.2-0.2 0.5-0.4 0.8l-0.6 0.7q-0.5 0.8-1.4 1.3-1.2 1.1-2.5 2l-1 0.9q-0.5 0.4-1.1 0.7-0.3 0.3-0.7 0.6-0.1 0.1-0.3 0.2-0.2 0.1-0.4 0.3l-1.8 1.1q-0.4 0.2-0.8 0.5-0.5 0.2-1 0.4-0.7 0.2-1.4 0.3-0.7 0-1.2-0.2-0.1 0-0.2 0-0.1-0.1-0.2-0.2-0.2-0.1-0.3-0.1-0.2 0.1-0.3 0.7-0.2 0.6-0.3 0.8-0.2 0.8-0.5 1.4-0.4 0.8-0.7 1.5l-0.5 1.3q-0.1 0.4-0.2 0.7-0.1 0.3-0.3 0.6zm5.8-11.3q0.3-0.3 0.8-0.3 0.6 0.1 0.9 0 0.4-0.2 0.5-0.1 0 0 0.1 0 0.1 0 0.3 0 0.2-0.1 0.3-0.1 0.3-0.1 0.5-0.3 0.3-0.1 0.5-0.3 0.2-0.2 0.5-0.3 0.2-0.2 0.4-0.3 0.2-0.2 0.5-0.4 0.1-0.2 0.2-0.3 0.2-0.1 0.3-0.2l0.4-0.5q0.2-0.3 0.5-0.4 0.2-0.4 0.3-0.4 0-0.1 0-0.1 0.5-0.4 0.7-0.9 0.3-0.5 0.6-1.1 0.3-0.4 0.6-0.9 0.3-0.6 0.5-1.1l0.4-0.8q0.2-0.3 0.5-0.8 0-0.1 0-0.2 0-0.2 0.1-0.3 0.3-0.7 0.4-0.9 0.1-0.5 0.2-0.7 0.1-0.1 0.1-0.2 0.1-0.1 0.1-0.2 0.1-0.1 0.1-0.2 0-0.1 0.1-0.2 0-0.1 0.2-0.4l0.2-0.4q0-0.1 0.1-0.3 0-0.2 0.1-0.3 0-0.1 0.1-0.3 0.1-0.1 0.1-0.2 0.1-0.5 0-0.9-0.1-0.4-0.1-0.8 0-0.4-0.1-0.7-0.1-0.3-0.1-0.6 0-0.4-0.2-0.7-0.1-0.1-0.2-0.1-0.2-0.1-0.2-0.2-0.5-0.2-0.6-0.2-0.2 0.1-0.4 0-0.2 0.1-0.7 0-0.3 0-0.8 0-0.2 0-0.5 0.1-0.3 0.2-0.5 0.1-0.3 0.2-0.6 0.2-0.3 0-0.3 0-0.2 0-0.4 0.1-0.2 0-0.5 0.1-0.3 0.1-0.5 0.3-0.4 0.2-1 0.4 0 0.5-0.1 0.8-0.1 0.3-0.1 0.7-0.3 0.9-0.6 1.7-0.1 0.4-0.3 0.9-0.1 0.4-0.2 0.8-0.5 1.1-0.9 2.2-0.4 1.2-0.8 2.3-0.1 0.3-0.3 0.7-0.1 0.3-0.3 0.6-0.3 0.7-0.4 1.6-0.2 0.6-0.3 1.1 0 0.3-0.1 0.6-0.1 0.2-0.2 0.4 0 0.2-0.1 0.3 0 0.1 0 0.2-0.1 0.1-0.1 0.3-0.1 0.1-0.1 0.2-0.1 0.1-0.1 0.3-0.1 0.2-0.2 0.5-0.2 0.4-0.2 0.8-0.1 0.1-0.1 0.3 0 0.1-0.1 0.3 0.2 0 0.5-0.2 0.2-0.2 0.6-0.1zm-6.9 11.3q-0.2 0.4-0.3 1-0.1 0.6-0.3 0.9-0.1 0.5-0.4 0.8-0.1 0.3-0.3 0.9 0 0.4 0.1 0.9 0 0.5-0.1 0.8 0 0.1-0.1 0.4-0.1 0.1 0 0.4-0.8 0.4-1.4 0.3-0.5-0.1-1-0.5-0.2 0.1-0.3 0-0.2-0.1-0.3-0.3-0.2-0.1-0.2-0.3 0-0.3-0.1-0.5-0.2-0.9-0.3-1.1-0.1-0.3-0.1-0.7 0.1-0.7 0.4-1.1 0.3-0.4 0.6-1 0.2-0.8 0.4-1.3 0.3-0.6 0.6-1.2 0-0.1 0.1-0.3l0.2-0.3q0.1-0.4 0.2-0.5l0.1-0.4q0.1-0.1 0.2-0.2 0-0.2 0.1-0.4 0-0.1 0.1-0.3 0-0.1 0.1-0.2 0.1-0.3 0.2-0.6l0.3-0.5q0-0.1 0-0.2 0 0 0-0.1 0.1-0.1 0.2-0.3 0-0.3 0.1-0.4 0.1-0.1 0.1-0.5 0.2-0.4 0.3-0.7 0.2-0.3 0.4-0.6l0.7-1.5q0.3-0.5 0.5-1.1 0-0.2 0.1-0.4l0.1-0.4q0.1-0.2 0.2-0.4 0-0.2 0.1-0.3 0.3-1.1 0.5-1.7 0.3-0.6 0.5-1.2 0.1-0.4 0.2-0.5 0.1-0.2 0.1-0.2 0.2-0.4 0.3-0.7 0.1-0.4 0.2-0.5 0.1-0.5 0.2-0.9 0.2-0.6 0.5-1 0.2-0.5 0.3-1.2 0.2-0.2 0.3-0.4 0-0.2 0.2-0.4 0-0.2 0.1-0.3 0-0.2 0.1-0.3l0.3-0.7q0.2-0.3 0.3-0.9 0.4-0.7 0.7-1.3 0.3-0.5 0.6-1.2 0.2-0.8 0.3-1 0.1-0.3 0.2-0.5-0.3 0.1-0.6 0.3-0.3 0.1-0.6 0.2-0.6 0.3-1.3 0.2-0.5-0.1-0.6 0-0.2 0.1-0.3 0.1-0.3 0.1-0.4 0.1-0.2 0-0.3 0.1-0.4 0.1-0.6 0.3-0.2 0.1-0.4 0.1-0.3 0.2-0.6 0 0.1-0.2 0.1-0.4 0-0.3 0-0.5 0.1-0.5 0.3-0.8 1-1.1 2.2-1.8 1.2-0.8 2.5-1.5 0.4-0.2 0.8-0.3 0.4-0.1 0.7-0.4 0.4-0.9 0.7-1.6 0.4-0.8 0.9-1.5 0.4-0.3 0.4-0.2-0.1 0 0.2 0 0.2 0.1 0.3 0.6 0.1 0.2 0.2 0.5 0.1 0.2 0.3 0.2 0.1 0.1 0.3 0 0.2-0.1 0.3-0.1 0.4-0.1 0.6-0.2 0.2-0.1 0.5 0 0.1-0.1 0.4-0.2 0.4 0 0.5-0.1 0.3-0.1 0.5-0.2 0.3-0.1 0.6-0.1 1-0.1 2.3 0.2 0.1 0.1 0.4 0.3l0.4 0.2q0.4 0.3 0.6 0.3 0.3 0.1 0.5 0.4 0.4 0.5 0.6 1.1 0.2 0 0.3 0.2 0.1 0.1 0.3 0.2 0.1 0.3 0.2 0.6 0.1 0.3 0.3 0.5 0.2 0.5 0.3 1.2 0.1 0.9-0.1 1.8 0 0.5-0.1 1-0.1 0.4-0.1 0.8-0.1 0.3-0.1 0.5-0.1 0.3-0.1 0.5 0 0.2 0 0.3 0 0.2 0 0.4 0 0.6-0.2 1.3-0.1 0.5-0.3 1.1-0.3 1.5-0.6 2.9-0.4 1.4-1.3 2.2-0.2 0.5-0.4 0.8l-0.6 0.7q-0.5 0.8-1.4 1.3-1.2 1.1-2.6 2l-1 0.9q-0.4 0.4-1.1 0.7-0.2 0.3-0.6 0.6-0.2 0.1-0.4 0.2-0.1 0.1-0.3 0.3l-1.8 1.1q-0.4 0.2-0.9 0.5-0.4 0.2-0.9 0.4-0.7 0.2-1.4 0.3-0.7 0-1.3-0.2 0 0-0.1 0-0.1-0.1-0.2-0.2-0.3-0.1-0.3-0.1-0.2 0.1-0.4 0.7-0.1 0.6-0.2 0.8-0.2 0.8-0.6 1.4-0.3 0.8-0.6 1.5l-0.5 1.3q-0.1 0.4-0.2 0.7-0.2 0.3-0.3 0.6zm5.8-11.3q0.3-0.3 0.8-0.3 0.6 0.1 0.9 0 0.4-0.2 0.4-0.1 0.1 0 0.2 0 0.1 0 0.3 0 0.2-0.1 0.3-0.1 0.3-0.1 0.5-0.3 0.2-0.1 0.5-0.3 0.2-0.2 0.4-0.3 0.3-0.2 0.5-0.3 0.2-0.2 0.4-0.4 0.2-0.2 0.3-0.3 0.1-0.1 0.3-0.2l0.4-0.5q0.2-0.3 0.5-0.4 0.2-0.4 0.3-0.4 0-0.1 0-0.1 0.4-0.4 0.7-0.9 0.3-0.5 0.6-1.1 0.3-0.4 0.5-0.9 0.3-0.6 0.5-1.1l0.5-0.8q0.2-0.3 0.4-0.8 0.1-0.1 0.1-0.2 0-0.2 0.1-0.3 0.2-0.7 0.3-0.9 0.2-0.5 0.3-0.7 0.1-0.1 0.1-0.2 0-0.1 0.1-0.2 0-0.1 0.1-0.2 0-0.1 0.1-0.2 0-0.1 0.1-0.4l0.2-0.4q0.1-0.1 0.1-0.3 0.1-0.2 0.1-0.3 0.1-0.1 0.1-0.3 0.1-0.1 0.1-0.2 0.2-0.5 0.1-0.9-0.1-0.4-0.1-0.8-0.1-0.4-0.1-0.7-0.1-0.3-0.1-0.6 0-0.4-0.3-0.7 0-0.1-0.2-0.1-0.1-0.1-0.2-0.2-0.4-0.2-0.5-0.2-0.2 0.1-0.4 0-0.3 0.1-0.7 0-0.3 0-0.8 0-0.3 0-0.5 0.1-0.3 0.2-0.5 0.1-0.4 0.2-0.6 0.2-0.3 0-0.4 0-0.1 0-0.3 0.1-0.3 0-0.5 0.1-0.3 0.1-0.5 0.3-0.5 0.2-1 0.4 0 0.5-0.1 0.8-0.1 0.3-0.1 0.7-0.3 0.9-0.6 1.7-0.2 0.4-0.3 0.9-0.1 0.4-0.2 0.8-0.5 1.1-0.9 2.2-0.4 1.2-0.8 2.3-0.1 0.3-0.3 0.7-0.1 0.3-0.3 0.6-0.3 0.7-0.4 1.6-0.2 0.6-0.3 1.1-0.1 0.3-0.2 0.6 0 0.2-0.1 0.4-0.1 0.2-0.1 0.3 0 0.1-0.1 0.2 0 0.1-0.1 0.3 0 0.1 0 0.2-0.1 0.1-0.2 0.3 0 0.2-0.1 0.5-0.2 0.4-0.3 0.8 0 0.1 0 0.3-0.1 0.1-0.1 0.3 0.1 0 0.5-0.2 0.2-0.2 0.6-0.1zm24.7 11.3q0.2-0.3 0.3-0.4 0.1-0.1 0.2-0.2 0.6-1.4 1.4-2.2 0.9-0.8 1.8-1.9 0.2 0 0.4-0.1 0.1-0.2 0.3-0.3 0.3-0.3 0.5-0.5 0.2-0.2 0.3-0.4 0.5-0.3 0.9-0.8 0.5-0.5 0.9-0.9 0.3-0.1 0.7 0.1 0.2 0.4 0.1 0.9 0 0.5-0.4 0.5-0.1 0.2-0.3 0.3-0.1 0.2-0.3 0.2-0.4 0.1-0.6 0.5 0 0.5-0.1 0.6-0.1 0.1-0.1 0.1-0.4 1-1 1.7-0.6 0.7-1.1 1.7-0.2 0.2-0.3 0.6-0.8 0.5-1.2 0.8-0.3 0.3-0.6 0.7-0.3 0.2-0.3 0.4 0 0.1 0 0.2-0.5 0.4-0.5 0.6-0.1 0.2-0.2 0.4-0.2 0.1-0.4 0.3-0.1 0.2-0.2 0.3-0.3 0.3-0.6 0.5-0.3 0.3-1 0.9-0.7 0.5-1.4 0.8-0.8 0.2-1.3 0l-0.3-0.3q0-0.1-0.2-0.3-0.3-0.4-0.7-0.7-0.2-0.2-0.5-0.7-0.3-0.6-0.4-1.2-0.1-0.6-0.3-1.2-0.1-1.3 0.1-2.2 0.3-0.9 0.5-1.7 0.3-0.8 0.6-1.4 0.7-1.3 0.9-3.1-0.4-0.5-0.5-1 0-0.3-0.1-0.6 0-0.4-0.1-0.8-1.1 0.9-2 2.2-0.9 1.4-1.6 2.8l-0.5 1.2q-0.3 0.5-0.6 0.9-0.2 0.3-0.2 0.4 0 0.1 0 0.2-0.2 0.2-0.3 0.4-0.1 0.2-0.2 0.3 0 0.1 0 0.2-0.1 0.1-0.1 0.2-0.2 0.2-0.2 0.3-0.1 0.1-0.2 0.3-0.6 1.1-1.1 2l-1 1.9q-0.2 0.4-0.4 0.9-0.1 0.4-0.4 0.8-0.4 0.1-0.5-0.2 0-0.2 0-0.3-0.5-0.4-0.5-1.7-0.1-1.2 0.2-1.9-0.2-0.5-0.1-0.5 0-0.1 0-0.2 0.6-0.9 1.1-1.9 0.6-0.9 1.2-1.8 0.1-0.2 0.2-0.4 0.1-0.1 0.2-0.3 0.2-0.4 0.5-0.7 0.3-0.8 0.8-1.6 0.5-0.8 0.8-1.6 0.3-0.3 0.4-0.6 0.1-0.3 0.3-0.5 0.2-0.4 0.3-0.6 0.1-0.4 0.2-0.7 0.1-0.5 0.4-1 0.1-0.3 0.2-0.5 0.2-0.3 0.4-0.5 0-0.3 0.2-0.5 0.2-0.2 0.3-0.4 0.1-0.4 0.2-0.5 0.2-0.1 0.2-0.4 0.2-0.2 0.4-0.5 0.2-0.3 0.3-0.7 0.6-0.4 0.9-0.4 0.2 0 0.3-0.3 0.2 0 0.4 0 0.2 0 0.4 0 0.5-0.1 0.5 0.4 0 0.1 0 0.2 0 0.1 0 0.2 0 0.1-0.1 0.1 0.1 0.5 0 0.5 0 0.1 0 0.1-0.1 0.2 0 0.4 0 0.1 0 0.5 0 0.2-0.1 0.3 0 0.2 0 0.3 0 0.3 0.2 0.6 0.1 0.2 0.2 0.3 0.2 0.1 0.3 0.4 0.1 0.1 0.2 0.3 0 0.2 0.1 0.3 0.1 0.1 0.3 0.3 0.1 0.1 0.2 0.3 0.2 0.2 0.2 0.3-0.1 0 0.1 0.2 0.5 0.8 0.8 1.6 0.2 0.7 0.4 1.1 0.2 0.4 0 0.8-0.1 0.2-0.3 0.7-0.2 0.2-0.3 0.5-0.1 0.2-0.1 0.4-0.1 0.2-0.2 0.3-0.3 0.8-0.7 1.4-0.4 0.6-0.7 1.3 0 1.5 0.4 2.2 0.5 0.8 0.7 0.8 0.2 0 0.5-0.2l0.6-0.4q0.1-0.1 0.1-0.2 0.1 0 0.2-0.1 0.1-0.1 0.3-0.1 0.4-0.2 0.4-0.1 0 0 0 0zm-1.1 0q0.2-0.3 0.3-0.4 0.1-0.1 0.2-0.2 0.5-1.4 1.4-2.2 0.8-0.8 1.8-1.9 0.2 0 0.3-0.1 0.2-0.2 0.4-0.3 0.3-0.3 0.5-0.5 0.2-0.2 0.3-0.4 0.5-0.3 0.9-0.8 0.4-0.5 0.9-0.9 0.3-0.1 0.7 0.1 0.1 0.4 0.1 0.9-0.1 0.5-0.4 0.5-0.2 0.2-0.3 0.3-0.1 0.2-0.4 0.2-0.4 0.1-0.5 0.5 0 0.5-0.1 0.6-0.1 0.1-0.1 0.1-0.5 1-1 1.7-0.6 0.7-1.1 1.7-0.2 0.2-0.4 0.6-0.7 0.5-1.1 0.8-0.3 0.3-0.6 0.7-0.3 0.2-0.3 0.4 0 0.1-0.1 0.2-0.4 0.4-0.4 0.6-0.1 0.2-0.2 0.4-0.2 0.1-0.4 0.3-0.2 0.2-0.3 0.3-0.2 0.3-0.5 0.5-0.4 0.3-1.1 0.9-0.6 0.5-1.4 0.8-0.7 0.2-1.2 0l-0.3-0.3q-0.1-0.1-0.3-0.3-0.2-0.4-0.6-0.7-0.3-0.2-0.5-0.7-0.4-0.6-0.4-1.2-0.1-0.6-0.4-1.2-0.1-1.3 0.2-2.2 0.2-0.9 0.5-1.7 0.3-0.8 0.6-1.4 0.7-1.3 0.9-3.1-0.4-0.5-0.5-1 0-0.3-0.1-0.6-0.1-0.4-0.1-0.8-1.1 0.9-2 2.2-1 1.4-1.7 2.8l-0.5 1.2q-0.2 0.5-0.5 0.9-0.2 0.3-0.2 0.4 0 0.1-0.1 0.2-0.1 0.2-0.2 0.4-0.1 0.2-0.2 0.3 0 0.1-0.1 0.2 0 0.1-0.1 0.2-0.1 0.2-0.2 0.3-0.1 0.1-0.2 0.3-0.6 1.1-1 2l-1 1.9q-0.3 0.4-0.4 0.9-0.2 0.4-0.4 0.8-0.4 0.1-0.5-0.2-0.1-0.2 0-0.3-0.5-0.4-0.5-1.7-0.1-1.2 0.1-1.9-0.1-0.5 0-0.5 0-0.1 0-0.2 0.5-0.9 1.1-1.9 0.6-0.9 1.2-1.8 0.1-0.2 0.2-0.4 0.1-0.1 0.2-0.3 0.2-0.4 0.4-0.7 0.4-0.8 0.9-1.6 0.5-0.8 0.8-1.6 0.2-0.3 0.3-0.6 0.1-0.3 0.4-0.5 0.1-0.4 0.2-0.6 0.2-0.4 0.2-0.7 0.2-0.5 0.5-1 0.1-0.3 0.2-0.5 0.1-0.3 0.3-0.5 0.1-0.3 0.3-0.5 0.2-0.2 0.3-0.4 0.1-0.4 0.2-0.5 0.1-0.1 0.1-0.4 0.2-0.2 0.4-0.5 0.3-0.3 0.4-0.7 0.6-0.4 0.8-0.4 0.3 0 0.4-0.3 0.2 0 0.3 0 0.3 0 0.5 0 0.5-0.1 0.5 0.4 0 0.1 0 0.2 0 0.1-0.1 0.2 0 0.1 0 0.1 0 0.5 0 0.5 0 0.1 0 0.1-0.1 0.2-0.1 0.4 0.1 0.1 0.1 0.5-0.1 0.2-0.1 0.3 0 0.2 0 0.3-0.1 0.3 0.1 0.6 0.1 0.2 0.3 0.3 0.1 0.1 0.3 0.4 0.1 0.1 0.1 0.3 0.1 0.2 0.2 0.3 0.1 0.1 0.2 0.3 0.2 0.1 0.3 0.3 0.2 0.2 0.1 0.3 0 0 0.2 0.2 0.5 0.8 0.7 1.6 0.3 0.7 0.5 1.1 0.2 0.4 0 0.8-0.1 0.2-0.3 0.7-0.2 0.2-0.3 0.5-0.1 0.2-0.2 0.4 0 0.2-0.1 0.3-0.4 0.8-0.8 1.4-0.4 0.6-0.7 1.3 0.1 1.5 0.5 2.2 0.5 0.8 0.6 0.8 0.3 0 0.6-0.2l0.6-0.4q0-0.1 0.1-0.2 0.1 0 0.2-0.1 0.1-0.1 0.2-0.1 0.5-0.2 0.5-0.1-0.1 0 0 0zm6.3-7.5q0.3-0.1 0.7-0.8 0.4-0.6 0.7-1.2 0.4-0.6 0.6-0.7 0.1-0.2 0.2-0.4 0.1-0.2 0.4-0.3 0.3-0.8 0.8-1.3 0.6-0.6 1.1-1.2 0.4-0.2 0.8-0.5 0.4-0.3 0.8-0.6 0.8-0.7 1.8-0.7 0.5 0.2 0.9 0.1 0.4-0.1 0.8 0.3 0.3 0.5 0.4 0.6 0.1 0.1 0.2 0.3 0.2 0.7 0.3 0.9 0.1 0.2 0.1 0.4 0 0.4 0.1 0.7 0 0.3 0 0.5 0 0.3 0 0.6-0.1 1.4-0.4 2.7-0.1 0.2-0.1 0.3 0 0.2-0.1 0.4-0.1 0.3-0.2 0.6-0.3 0.5-0.4 0.8-0.2 0.4-0.3 0.5-0.2 0.4-0.5 0.6-0.2 0.3-0.4 0.5-0.2 0.1-0.4 0.3-0.1 0.1-0.3 0.3-0.4 0.3-0.9 0.4l-0.3 0.3q-0.2 0.2-0.5 0.2-0.3 0.3-0.8 0.5-0.2 0.1-0.4 0.2-0.2 0.1-0.5 0.3-0.3 0.1-0.5 0.3-0.2 0.3-0.6 0.5-0.2 0.1-0.6 0.2-0.4 0-0.6 0.1 0.2 0.6 0.2 1.4 0 0.7 0.2 1.3 0.5 0.1 1.2 0.2 0.6 0.1 1.2 0 0.1 0 0.2-0.1 0.2 0 0.3-0.1 0.1 0 0.2-0.1 0.2-0.1 0.3-0.1 0.4-0.1 0.9-0.2 0.4-0.2 0.8-0.5 1.2-0.5 2.3-1.4 1.1-0.9 2-1.9 0.5-0.5 1.1-1.2 0.6-0.7 0.9-1.4 0.6-0.8 1.1-1.3 0.5-0.5 0.9-0.4 0.4 0 0.7 0.5 0.3 0.5-0.1 1.1-0.4 0.3-0.9 0.9-0.4 0.6-0.9 0.9-0.4 0.3-1 1.2-0.5 0.8-0.9 1.2-0.1 0.1-0.2 0.3-0.1 0.1-0.2 0.2-0.3 0.3-0.5 0.6-0.6 0.7-1.2 1.2-0.3-0.1-0.4 0.1-0.2 0.3-0.4 0.4 0 0-0.1 0.1 0 0-0.1 0.1-0.1 0-0.2 0.1 0 0.1-0.1 0.1-0.3 0.4-0.7 0.7-0.4 0.4-0.8 0.7-0.5 0.3-0.9 0.6-0.4 0.2-0.8 0.5-0.4 0.2-0.9 0.5-0.4 0.3-0.7 0.6l-0.5 0.1q-0.1 0-0.2 0-0.1 0-0.2 0.1-0.3 0.1-0.5 0.1-0.2 0-0.5-0.1-1.4-0.5-2.2-1.7-0.2-0.2-0.3-0.3-0.1-0.2-0.3-0.3-0.3-0.3-0.5-0.6-0.1-0.4-0.4-1.2-0.1-0.9-0.3-1.8-0.1-0.8-0.1-1.3 0.1-0.3 0.2-1.1 0.2-0.8 0.3-1.6 0.1-0.8 0.1-1.1 0.1-0.1 0.3-0.7 0.3-0.6 0.5-1.2 0.2-0.6 0.2-0.8zm6.7-3.3q-0.3 0.4-0.6 0.9-0.2 0.4-0.6 0.8-0.3 0.5-0.6 1-0.3 0.5-0.7 0.9-0.1 0.4-0.4 0.7-0.2 0.2-0.4 0.5-0.3 0.5-0.7 1.1-0.4 0.5-0.1 1.2 0.4 0.1 0.9-0.2 0.4-0.2 0.8-0.4 0.1-0.2 0.3-0.3 0.2-0.1 0.4-0.2 0.1-0.1 0.3-0.2 0.2-0.1 0.3-0.2l1.1-1.4q0.2-0.3 0.5-0.7 0.1-0.2 0.2-0.4 0.1-0.2 0.3-0.4 0.1-0.6 0.3-1.1 0.2-0.5 0.2-1.1 0-0.2-0.1-0.5-0.2-0.3-0.2-0.5-0.4 0-0.6 0.2-0.1 0.1-0.3 0.2-0.1 0-0.3 0.1zm-7.8 3.3q0.2-0.1 0.6-0.8 0.4-0.6 0.8-1.2 0.4-0.6 0.6-0.7 0.1-0.2 0.2-0.4 0.1-0.2 0.3-0.3 0.4-0.8 0.9-1.3 0.6-0.6 1-1.2 0.4-0.2 0.8-0.5 0.5-0.3 0.9-0.6 0.8-0.7 1.8-0.7 0.4 0.2 0.9 0.1 0.4-0.1 0.8 0.3 0.2 0.5 0.4 0.6 0.1 0.1 0.2 0.3 0.2 0.7 0.3 0.9 0.1 0.2 0.1 0.4 0 0.4 0 0.7 0.1 0.3 0.1 0.5 0 0.3 0 0.6-0.1 1.4-0.4 2.7-0.1 0.2-0.1 0.3-0.1 0.2-0.1 0.4-0.1 0.3-0.2 0.6-0.3 0.5-0.5 0.8-0.1 0.4-0.2 0.5-0.3 0.4-0.5 0.6-0.2 0.3-0.4 0.5-0.2 0.1-0.4 0.3-0.2 0.1-0.4 0.3-0.3 0.3-0.8 0.4l-0.4 0.3q-0.2 0.2-0.4 0.2-0.4 0.3-0.8 0.5-0.2 0.1-0.5 0.2-0.2 0.1-0.4 0.3-0.3 0.1-0.5 0.3-0.3 0.3-0.6 0.5-0.2 0.1-0.6 0.2-0.4 0-0.6 0.1 0.2 0.6 0.2 1.4-0.1 0.7 0.2 1.3 0.5 0.1 1.2 0.2 0.6 0.1 1.2 0 0.1 0 0.2-0.1 0.1 0 0.3-0.1 0.1 0 0.2-0.1 0.1-0.1 0.3-0.1 0.4-0.1 0.9-0.2 0.4-0.2 0.7-0.5 1.2-0.5 2.4-1.4 1.1-0.9 1.9-1.9 0.5-0.5 1.2-1.2 0.6-0.7 0.9-1.4 0.6-0.8 1.1-1.3 0.5-0.5 0.9-0.4 0.3 0 0.6 0.5 0.4 0.5 0 1.1-0.4 0.3-0.9 0.9-0.5 0.6-1 0.9-0.3 0.3-0.9 1.2-0.6 0.8-0.9 1.2-0.1 0.1-0.2 0.3-0.1 0.1-0.3 0.2-0.2 0.3-0.4 0.6-0.7 0.7-1.3 1.2-0.2-0.1-0.3 0.1-0.2 0.3-0.4 0.4 0 0-0.1 0.1-0.1 0-0.2 0.1 0 0-0.1 0.1-0.1 0.1-0.1 0.1-0.4 0.4-0.8 0.7-0.4 0.4-0.8 0.7-0.4 0.3-0.8 0.6-0.4 0.2-0.8 0.5-0.5 0.2-0.9 0.5-0.4 0.3-0.8 0.6l-0.4 0.1q-0.1 0-0.2 0-0.2 0-0.3 0.1-0.2 0.1-0.4 0.1-0.2 0-0.5-0.1-1.4-0.5-2.3-1.7-0.1-0.2-0.3-0.3-0.1-0.2-0.2-0.3-0.4-0.3-0.5-0.6-0.2-0.4-0.4-1.2-0.2-0.9-0.3-1.8-0.2-0.8-0.2-1.3 0.2-0.3 0.3-1.1 0.2-0.8 0.3-1.6 0.1-0.8 0.1-1.1 0-0.1 0.3-0.7 0.2-0.6 0.4-1.2 0.3-0.6 0.3-0.8zm6.7-3.3q-0.3 0.4-0.6 0.9-0.3 0.4-0.6 0.8-0.3 0.5-0.6 1-0.4 0.5-0.7 0.9-0.2 0.4-0.4 0.7-0.2 0.2-0.4 0.5-0.3 0.5-0.7 1.1-0.4 0.5-0.2 1.2 0.5 0.1 0.9-0.2 0.5-0.2 0.8-0.4 0.2-0.2 0.4-0.3 0.2-0.1 0.3-0.2 0.2-0.1 0.4-0.2 0.1-0.1 0.3-0.2l1.1-1.4q0.2-0.3 0.5-0.7 0.1-0.2 0.2-0.4 0.1-0.2 0.2-0.4 0.1-0.6 0.4-1.1 0.2-0.5 0.2-1.1-0.1-0.2-0.2-0.5-0.1-0.3-0.1-0.5-0.5 0-0.7 0.2-0.1 0.1-0.2 0.2-0.1 0-0.3 0.1zm11.9 8.3q0.2 0 0.3-0.2 0.1-0.2 0.3-0.4 0.1 0 0.2-0.1 0 0 0.1-0.1 0.1 0 0.2-0.1 0-0.1 0.1-0.1 0.5-0.5 0.9-1.1 0.4-0.5 0.9-1 0.3-0.4 0.6-0.7 0.3-0.4 0.5-0.7 0.6-0.6 1.1-1.5 0.6-0.6 1.2-1.4 0.4-0.3 0.7-0.6 0.2-0.3 0.6-0.6 0.3-0.3 0.5-0.7 0.3-0.4 0.6-0.6 0.4-0.5 0.7-0.7 0.4-0.1 0.8-0.6 0.6-0.4 1.1-0.1 0.5 0.3 0.8 0.7 0.1 0.5 0.5 1 0 0.1 0.1 0.2 0 0 0.1 0.1 0 0.1 0 0.4 0 0.6-0.1 1.2-0.1 0.3-0.1 0.6-0.1 0.3-0.1 0.6 0 0.3-0.1 0.7 0 0.3 0 0.7 0 0.7-0.2 1.5 0.2 0.4 0.4 0.9 0.2 0.5 0.4 0.7 0.2 0 0.4-0.4 0.1-0.1 0.2-0.2 0.1-0.1 0.3-0.2 0.3-0.2 0.4-0.4 0.2-0.2 0.4-0.4 0.1-0.2 0.3-0.4 0.3-0.3 0.5-0.7 0.2-0.2 0.3-0.3 0.2-0.2 0.3-0.4 0.1-0.1 0.3-0.3 0.2-0.2 0.3-0.4 0.2-0.2 0.3-0.4 0.2-0.2 0.3-0.4 0.2-0.2 0.3-0.5 0.2-0.2 0.3-0.4 0.2-0.2 0.3-0.3 0.2-0.1 0.2-0.3 0.4-0.2 0.6-0.6 0.2-0.4 0.7-0.6 0.4 0 0.5 0 0.1 0.1 0.4 0.4 0.2 0.2 0.3 0.5 0.1 0.4 0.3 0.6 0.4 0.9 0.6 1.1 0.1 0.5 0.1 0.9l-0.2 0.8q-0.1 0.3-0.1 0.6 0 0.1 0 0.2 0 0.1-0.1 0.3 0 0.1 0 0.2-0.3 1.8-0.8 3.6 0.1 0.3 0.2 0.7 0.1 0.4 0.1 1 0.2 0 0.5 0 0.2-0.1 0.4-0.1 0.9-0.5 1.6-1.2 0.6-0.5 1.2-1 0.6-0.6 1.1-1.1 0.2-0.1 0.3-0.4 0.2-0.2 0.4-0.3 0.4-0.5 0.8-0.7 0.4-0.3 0.8-0.6 0.2-0.1 0.3-0.3 0.2-0.1 0.3-0.3 0.2-0.3 0.6-0.6 0.4-0.3 0.7-0.5 0.6 0 0.6 0.2l0.1 0.5q-0.5 0.5-1 1-0.5 0.5-1 1-0.1 0.1-0.2 0.2-0.1 0.1-0.4 0.2-0.1 0.2-0.2 0.3 0 0.1-0.3 0.3-0.1 0.1-0.2 0.3-0.1 0.1-0.3 0.2-0.2 0.2-0.4 0.5-0.3 0.3-0.6 0.5-0.2 0.3-0.4 0.5-0.2 0.3-0.4 0.6-0.1 0.3-0.4 0.6-0.2 0.1-0.4 0.3l-0.3 0.3q-0.1 0.3-0.1 0.5 0 0.3-0.3 0.5-0.3 0.4-0.4 0.5 0 0.2-0.1 0.3-0.1 0.1-0.3 0.2-0.1 0-0.2 0.1-0.1 0.1-0.2 0.1-0.2 0.1-0.3 0.4-0.1 0.1-0.2 0.2-0.1 0.1-0.2 0.2-0.2 0.1-0.3 0.2-0.2 0.1-0.3 0.2-0.2 0.2-0.6 0.3-0.4 0.4-0.6 0.4-0.2 0-0.4 0-0.1 0.1-0.2-0.1-0.1-0.2-0.3-0.2-0.2-0.3-0.4-0.2-0.1 0-0.3-0.1-0.4-0.6-0.4-0.9 0-0.1 0-0.3 0-0.2 0-0.4-0.1-0.8-0.2-1.6-0.1-0.8-0.1-1.7 0-0.4 0-0.7 0.1-0.4 0.1-0.7 0-0.1 0-0.4 0-0.2 0-0.3 0-0.4 0.1-0.8 0.1-0.3 0-0.7-0.2 0.4-0.5 0.7-0.2 0.2-0.3 0.4-0.2 0.2-0.3 0.4-0.1 0.2-0.3 0.4-0.6 0.4-1 0.9-0.5 0.5-1.2 0.8-0.3 0.3-0.6 0.7-0.2 0.3-0.5 0.6-0.3 0.3-0.6 0.6-0.2 0.3-0.5 0.7-0.7 1.1-1.5 1.7-0.3 0.1-0.5 0.1-0.2 0-0.3-0.1-0.9-0.6-1.1-1.6-0.1-1 0.1-2.3-0.2-0.5 0-1.4 0.3-0.9 0.1-1.4 0.1-0.4 0.1-0.7 0.1-0.5 0.2-0.9 0.1-0.4 0.2-0.8 0.1-0.4 0.1-0.8 0.2-0.4 0.1-0.6-0.2-0.2-0.3-0.4-0.7 0.5-1.4 1.3-0.6 0.7-1.3 1.4-0.1 0.2-0.3 0.4-0.2 0.1-0.3 0.3-0.2 0.2-0.3 0.4-0.2 0.2-0.4 0.3l-0.6 0.7q-0.4 0.4-0.6 0.8-0.3 0.5-0.5 0.6l-0.2 0.3q-0.2 0.1-0.4 0.3-0.1 0.1-0.2 0.3-0.1 0.1-0.4 0.2l-0.3 0.2q-0.3 0.2-0.6 0.6-0.2 0.3-0.4 0.6-0.2 0.2-0.4 0.4-0.2 0.2-0.3 0.4-0.3 0.5-0.7 1-0.1 0.2-0.3 0.4-0.1 0.2-0.3 0.5 0 0.2-0.2 0.5l-0.4 0.5q-0.1 0.1-0.2 0.2 0 0.1-0.1 0.2-0.2 0.3-0.4 0.4l-0.3 0.1q-0.3 0-0.4 0.1-0.1 0.1-0.2 0.2-0.2 0-0.3 0.1-0.3 0.1-0.6 0.1l-0.5-0.1q-0.2 0-0.5-0.2 0-0.4-0.2-0.6 0.1-0.7 0.3-1.3 0.2-0.6 0.3-1.2 0.3-0.5 0.5-1.2 0.1-0.6 0.4-1.3 0.2-0.6 0.4-1.3l0.5-1.3q0.1-0.3 0.1-0.6 0.1-0.3 0.2-0.6 0.1-0.5 0.3-0.9 0.3-0.6 0.3-0.8 0.5-0.7 0.5-1.4 0.2-0.3 0.3-0.9 0.1-0.6 0.2-1 0.1-0.2 0.2-0.4 0-0.2 0.1-0.4 0-0.4 0-0.5 0-0.2 0.1-0.5 0.1-0.2 0.2-0.3 0.1-0.1 0.2-0.2 0-0.1 0.1-0.2 0.1-0.1 0.2-0.2 0.2 0 0.3-0.3 0.1-0.2 0.2-0.3 0.5-0.2 0.6-0.3 0-0.1 0.1-0.1l0.6-0.4q0 0 0.1 0 0.1-0.1 0.2-0.1 0.1-0.1 0.1-0.1 0.1-0.1 0.1-0.1 0.1 0 0.1 0 0.1-0.1 0.2-0.1 0.1-0.1 0.3-0.3 0.2-0.2 0.3-0.3 0.5 0.2 0.8 0.6 0.3 0.5 0.1 1.2 0 0.3-0.1 0.5-0.1 0.2-0.2 0.4 0 0.2-0.1 0.6 0 0.3-0.1 0.4-0.3 0.7-0.4 1-0.1 0.4-0.2 0.6-0.1 0.4-0.3 0.7-0.1 0.4-0.2 0.7-0.1 0.3-0.3 0.5-0.2 0.3-0.2 0.4-0.2 0.2-0.3 0.4-0.1 0.3-0.3 0.5-0.1 0.3-0.3 0.6-0.3 0.5-0.6 1l-0.5 1.1q-0.2 0.5-0.4 1.1zm-1.1 0q0.2 0 0.3-0.2 0.1-0.2 0.3-0.4 0.1 0 0.1-0.1 0.1 0 0.2-0.1 0.1 0 0.1-0.1 0.1-0.1 0.2-0.1 0.5-0.5 0.9-1.1 0.4-0.5 0.9-1 0.3-0.4 0.5-0.7 0.3-0.4 0.6-0.7 0.5-0.6 1-1.5 0.7-0.6 1.3-1.4 0.4-0.3 0.6-0.6 0.3-0.3 0.7-0.6 0.2-0.3 0.5-0.7 0.2-0.4 0.6-0.6 0.3-0.5 0.7-0.7 0.4-0.1 0.7-0.6 0.7-0.4 1.2-0.1 0.5 0.3 0.8 0.7 0.1 0.5 0.5 1 0 0.1 0 0.2 0.1 0 0.1 0.1 0.1 0.1 0.1 0.4 0 0.6-0.1 1.2-0.1 0.3-0.1 0.6-0.1 0.3-0.1 0.6-0.1 0.3-0.1 0.7 0 0.3 0 0.7-0.1 0.7-0.2 1.5 0.2 0.4 0.4 0.9 0.1 0.5 0.4 0.7 0.1 0 0.4-0.4 0.1-0.1 0.2-0.2 0.1-0.1 0.2-0.2 0.3-0.2 0.5-0.4 0.2-0.2 0.3-0.4 0.2-0.2 0.3-0.4 0.3-0.3 0.6-0.7 0.1-0.2 0.3-0.3 0.1-0.2 0.3-0.4 0.1-0.1 0.3-0.3 0.1-0.2 0.3-0.4 0.2-0.2 0.3-0.4 0.2-0.2 0.3-0.4 0.2-0.2 0.3-0.5 0.1-0.2 0.3-0.4 0.2-0.2 0.3-0.3 0.1-0.1 0.2-0.3 0.3-0.2 0.6-0.6 0.2-0.4 0.6-0.6 0.4 0 0.6 0 0.1 0.1 0.3 0.4 0.3 0.2 0.4 0.5 0.1 0.4 0.3 0.6 0.4 0.9 0.6 1.1 0.1 0.5 0 0.9l-0.2 0.8q0 0.3 0 0.6 0 0.1 0 0.2-0.1 0.1-0.1 0.3 0 0.1 0 0.2-0.3 1.8-0.8 3.6 0 0.3 0.2 0.7 0.1 0.4 0.1 1 0.2 0 0.4 0 0.3-0.1 0.4-0.1 0.9-0.5 1.7-1.2 0.6-0.5 1.1-1 0.7-0.6 1.2-1.1 0.2-0.1 0.3-0.4 0.2-0.2 0.3-0.3 0.5-0.5 0.9-0.7 0.4-0.3 0.8-0.6 0.2-0.1 0.3-0.3 0.1-0.1 0.3-0.3 0.2-0.3 0.6-0.6 0.4-0.3 0.7-0.5 0.6 0 0.6 0.2l0.1 0.5q-0.6 0.5-1.1 1-0.4 0.5-0.9 1-0.2 0.1-0.3 0.2-0.1 0.1-0.3 0.2-0.1 0.2-0.2 0.3-0.1 0.1-0.3 0.3-0.1 0.1-0.2 0.3-0.2 0.1-0.3 0.2-0.2 0.2-0.4 0.5-0.3 0.3-0.6 0.5-0.2 0.3-0.4 0.5-0.3 0.3-0.4 0.6-0.2 0.3-0.4 0.6-0.3 0.1-0.4 0.3l-0.3 0.3q-0.1 0.3-0.1 0.5-0.1 0.3-0.3 0.5-0.3 0.4-0.4 0.5 0 0.2-0.2 0.3-0.1 0.1-0.3 0.2-0.1 0-0.1 0.1-0.1 0.1-0.2 0.1-0.2 0.1-0.4 0.4-0.1 0.1-0.2 0.2-0.1 0.1-0.2 0.2-0.1 0.1-0.3 0.2-0.1 0.1-0.2 0.2-0.2 0.2-0.6 0.3-0.5 0.4-0.7 0.4-0.1 0-0.4 0-0.1 0.1-0.2-0.1 0-0.2-0.2-0.2-0.3-0.3-0.4-0.2-0.2 0-0.3-0.1-0.4-0.6-0.4-0.9 0-0.1 0-0.3 0-0.2-0.1-0.4 0-0.8-0.1-1.6-0.1-0.8-0.2-1.7 0-0.4 0.1-0.7 0.1-0.4 0.1-0.7 0-0.1 0-0.4-0.1-0.2-0.1-0.3 0.1-0.4 0.2-0.8 0-0.3 0-0.7-0.3 0.4-0.5 0.7-0.2 0.2-0.3 0.4-0.2 0.2-0.3 0.4-0.2 0.2-0.3 0.4-0.6 0.4-1.1 0.9-0.4 0.5-1.1 0.8-0.3 0.3-0.6 0.7-0.3 0.3-0.5 0.6-0.3 0.3-0.6 0.6-0.3 0.3-0.6 0.7-0.7 1.1-1.5 1.7-0.3 0.1-0.4 0.1-0.2 0-0.4-0.1-0.8-0.6-1-1.6-0.2-1 0-2.3-0.2-0.5 0.1-1.4 0.2-0.9 0.1-1.4 0-0.4 0.1-0.7 0.1-0.5 0.2-0.9 0.1-0.4 0.2-0.8 0-0.4 0.1-0.8 0.2-0.4 0-0.6-0.1-0.2-0.2-0.4-0.7 0.5-1.4 1.3-0.6 0.7-1.3 1.4-0.2 0.2-0.3 0.4-0.2 0.1-0.3 0.3-0.2 0.2-0.4 0.4-0.1 0.2-0.3 0.3l-0.7 0.7q-0.3 0.4-0.6 0.8-0.2 0.5-0.4 0.6l-0.3 0.3q-0.2 0.1-0.3 0.3-0.1 0.1-0.2 0.3-0.2 0.1-0.4 0.2l-0.4 0.2q-0.2 0.2-0.5 0.6-0.3 0.3-0.5 0.6-0.1 0.2-0.3 0.4-0.3 0.2-0.4 0.4-0.2 0.5-0.6 1-0.1 0.2-0.3 0.4-0.1 0.2-0.3 0.5 0 0.2-0.2 0.5l-0.4 0.5q-0.1 0.1-0.2 0.2-0.1 0.1-0.2 0.2-0.1 0.3-0.4 0.4l-0.3 0.1q-0.2 0-0.3 0.1-0.1 0.1-0.3 0.2-0.1 0-0.2 0.1-0.3 0.1-0.7 0.1l-0.5-0.1q-0.2 0-0.4-0.2 0-0.4-0.2-0.6 0.1-0.7 0.3-1.3 0.1-0.6 0.2-1.2 0.4-0.5 0.5-1.2 0.2-0.6 0.5-1.3 0.2-0.6 0.4-1.3l0.4-1.3q0.1-0.3 0.2-0.6 0.1-0.3 0.1-0.6 0.2-0.5 0.4-0.9 0.2-0.6 0.3-0.8 0.4-0.7 0.4-1.4 0.3-0.3 0.4-0.9 0.1-0.6 0.2-1 0.1-0.2 0.2-0.4 0-0.2 0.1-0.4 0-0.4 0-0.5 0-0.2 0.1-0.5 0.1-0.2 0.2-0.3 0-0.1 0.1-0.2 0.1-0.1 0.2-0.2 0.1-0.1 0.2-0.2 0.1 0 0.2-0.3 0.2-0.2 0.3-0.3 0.5-0.2 0.5-0.3 0.1-0.1 0.1-0.1l0.7-0.4q0 0 0.1 0 0.1-0.1 0.1-0.1 0.1-0.1 0.2-0.1 0.1-0.1 0.1-0.1 0 0 0.1 0 0.1-0.1 0.2-0.1 0.1-0.1 0.3-0.3 0.2-0.2 0.3-0.3 0.4 0.2 0.7 0.6 0.3 0.5 0.2 1.2 0 0.3-0.1 0.5-0.1 0.2-0.2 0.4-0.1 0.2-0.1 0.6 0 0.3-0.1 0.4-0.3 0.7-0.4 1-0.1 0.4-0.2 0.6-0.2 0.4-0.3 0.7-0.1 0.4-0.2 0.7-0.1 0.3-0.3 0.5-0.2 0.3-0.3 0.4-0.1 0.2-0.2 0.4-0.2 0.3-0.3 0.5-0.2 0.3-0.3 0.6-0.3 0.5-0.6 1l-0.5 1.1q-0.2 0.5-0.4 1.1zm38.5-19.7l0.4 0.1q0.1 0.2 0.1 0.3 0 0.2 0.1 0.3 0 0.5-0.1 1-0.1 0.5-0.1 1 0 0.1 0.1 0.3 0.1 0.2 0.1 0.3-0.2 0.7-0.3 0.8-0.1 0.1-0.1 0.2-0.2 0.2-0.3 0.4-0.1 0.2-0.3 0.2-0.1 0.1-0.2 0.2-0.2 0.1-0.2 0.3-0.7 0.4-1.5-0.1-0.2-0.5-0.6-0.6-0.5-1 0-2.4 0.1-0.3 0.2-0.6 0.1-0.3 0.2-0.4 0.4-0.4 0.6-0.5 0.1 0 0.2-0.1 0.1-0.1 0.2-0.2 0.1-0.1 0.4-0.2 0.1-0.1 0.3-0.1 0.1 0 0.3-0.1 0.1 0 0.1 0 0.1-0.1 0.2-0.1 0.1 0 0.2 0zm-6.3 23.3l0.2 0.1q0.4-0.2 1-0.1 0.5 0 0.8-0.2 0.3-0.2 0.3-0.3 0.2-0.2 0.3-0.1 0.7-0.4 1.2-0.7 0.4-0.3 1-0.5 0.3-0.1 0.5-0.4 0.9-0.4 1.5-1 0.6-0.6 1.3-1.4 0.6-0.4 1-0.7 0.4-0.3 0.9-0.8 0.1-0.3 0.2-0.4 0.1-0.1 0.2-0.3 0.8 0 0.8 0.7-0.2 0.6-0.5 1-0.4 0.4-0.7 0.8-0.3 0.3-0.5 0.5-0.2 0.2-0.4 0.6 0 0-0.3 0.3-0.2 0.2-0.2 0.2-0.4 0.5-0.5 0.6-0.2 0.1-0.6 0.6-0.3 0.5-0.8 0.9-0.9 1.1-1.9 1.8-0.5 0.4-1 0.8-0.4 0.4-0.8 0.7-0.2 0.2-0.3 0.3-0.1 0.2-0.3 0.4-0.2 0.2-0.7 0.4-0.4 0.2-0.7 0.4-0.3 0.2-0.5 0.3-0.9 0-1.4-0.4-0.6-0.4-0.9-0.6-0.3-0.2-0.5-0.7-0.4-0.3-0.5-0.9-0.1-0.4-0.1-0.8-0.1-0.3-0.2-0.6 0-0.3 0-0.6-0.1-0.4 0-0.8 0.1-0.6 0.1-1.2 0-0.6 0.2-1.1 0.2-0.6 0.2-1.2 0.1-0.6 0.3-1.2 0.2-0.5 0.2-0.5 0-0.1 0-0.2l0.2-0.3q0.1-0.1 0.2-0.4l0.2-0.8q0.2-0.4 0.4-0.7 0.2-0.3 0.3-0.9 0.1-0.4 0.3-0.6 0.1-0.1 0.1-0.2 0.1-0.2 0.2-0.4 0.1-0.2 0.2-0.6 0-0.2 0.1-0.4 0-0.2 0.1-0.3 0.1-0.5 0.3-0.9 0.2-0.4 0.4-0.8 0.2-0.4 0.3-0.7 0.1-0.2 0.5-0.2 0.2-0.1 0.4 0 0.2 0.1 0.4 0 0.5-0.3 0.8-0.3 0.2 0 0.2-0.2 0.5 0 0.7 0.4 0.2 0.3 0.5 0.6-0.2 1.5-0.5 2.4-0.4 0.8-0.7 1.7-0.2 0.4-0.5 0.9-0.2 0.5-0.3 1-0.2 0.5-0.5 1-0.2 0.5-0.4 1l-0.2 0.5q-0.1 0.3-0.1 0.5-0.1 0.2-0.1 0.4-0.1 0.2-0.2 0.3-0.1 0.1-0.1 0.3-0.1 0.1-0.1 0.2-0.2 0.4-0.3 0.7-0.1 0.3-0.2 0.7-0.2 0.5-0.3 0.7 0 0.1 0 0.2 0 0 0 0.1-0.1 0.5-0.3 0.9-0.2 0.4 0.1 0.5zm5.2-23.3l0.4 0.1q0.1 0.2 0.1 0.3 0 0.2 0.1 0.3-0.1 0.5-0.1 1-0.1 0.5-0.1 1 0 0.1 0.1 0.3 0.1 0.2 0.1 0.3-0.2 0.7-0.3 0.8-0.1 0.1-0.1 0.2-0.2 0.2-0.3 0.4-0.1 0.2-0.4 0.2-0.1 0.1-0.2 0.2-0.1 0.1-0.1 0.3-0.7 0.4-1.5-0.1-0.2-0.5-0.6-0.6-0.5-1 0-2.4 0-0.3 0.1-0.6 0.1-0.3 0.2-0.4 0.5-0.4 0.7-0.5 0.1 0 0.2-0.1 0.1-0.1 0.2-0.2 0.1-0.1 0.4-0.2 0.1-0.1 0.2-0.1 0.2 0 0.3-0.1 0.1 0 0.2 0 0.1-0.1 0.1-0.1 0.2 0 0.3 0zm-6.3 23.3l0.2 0.1q0.4-0.2 0.9-0.1 0.6 0 0.9-0.2 0.2-0.2 0.3-0.3 0.1-0.2 0.3-0.1 0.7-0.4 1.1-0.7 0.5-0.3 1-0.5 0.4-0.1 0.6-0.4 0.9-0.4 1.5-1 0.6-0.6 1.3-1.4 0.6-0.4 1-0.7 0.4-0.3 0.8-0.8 0.1-0.3 0.3-0.4 0.1-0.1 0.2-0.3 0.7 0 0.8 0.7-0.2 0.6-0.5 1-0.4 0.4-0.7 0.8-0.3 0.3-0.5 0.5-0.2 0.2-0.5 0.6 0 0-0.2 0.3-0.2 0.2-0.3 0.2-0.3 0.5-0.5 0.6-0.1 0.1-0.5 0.6-0.3 0.5-0.8 0.9-0.9 1.1-1.9 1.8-0.5 0.4-1 0.8-0.4 0.4-0.9 0.7-0.2 0.2-0.3 0.3 0 0.2-0.3 0.4-0.2 0.2-0.6 0.4-0.4 0.2-0.8 0.4-0.2 0.2-0.4 0.3-1 0-1.5-0.4-0.5-0.4-0.8-0.6-0.3-0.2-0.5-0.7-0.5-0.3-0.6-0.9 0-0.4-0.1-0.8 0-0.3-0.1-0.6 0-0.3-0.1-0.6 0-0.4 0-0.8 0.1-0.6 0.2-1.2 0-0.6 0.2-1.1 0.1-0.6 0.2-1.2 0-0.6 0.2-1.2 0.3-0.5 0.3-0.5-0.1-0.1 0-0.2l0.2-0.3q0-0.1 0.1-0.4l0.3-0.8q0.2-0.4 0.4-0.7 0.2-0.3 0.3-0.9 0.1-0.4 0.2-0.6 0.1-0.1 0.2-0.2 0.1-0.2 0.2-0.4 0.1-0.2 0.2-0.6 0-0.2 0-0.4 0.1-0.2 0.2-0.3 0.1-0.5 0.3-0.9 0.2-0.4 0.4-0.8 0.2-0.4 0.3-0.7 0.1-0.2 0.5-0.2 0.2-0.1 0.4 0 0.2 0.1 0.4 0 0.5-0.3 0.7-0.3 0.2 0 0.3-0.2 0.5 0 0.7 0.4 0.2 0.3 0.5 0.6-0.3 1.5-0.6 2.4-0.3 0.8-0.7 1.7-0.2 0.4-0.4 0.9-0.2 0.5-0.4 1-0.2 0.5-0.4 1-0.3 0.5-0.4 1l-0.2 0.5q-0.1 0.3-0.2 0.5 0 0.2-0.1 0.4 0 0.2-0.1 0.3-0.1 0.1-0.1 0.3-0.1 0.1-0.2 0.2-0.1 0.4-0.2 0.7-0.2 0.3-0.2 0.7-0.2 0.5-0.3 0.7 0 0.1 0 0.2 0 0-0.1 0.1-0.1 0.5-0.2 0.9-0.2 0.4 0.1 0.5zm20.7 2.7l-0.3-1.1q-0.2-0.7-0.1-2.1l0.2-0.9q0-0.2 0-0.5 0.1-0.3 0.1-0.7 0.1-0.4 0.1-0.8 0.1-0.4 0.2-0.8 0-0.5 0.1-0.9 0-0.4 0.1-0.8-0.3 0.6-0.6 1.2-0.3 0.7-0.6 1.3-0.5 1.3-1.3 2.3-0.2 0.6-0.4 0.8-0.3 0.2-0.5 0.3-0.3 0.2-0.4 0.8-0.2 0.2-0.4 0.5-0.2 0.3-0.3 0.7-0.2 0.2-0.4 0.5-0.4 0.5-0.5 0.5-0.1 0-0.2 0.2-0.4 0.4-0.8 0.6-0.3 0.2-0.7 0.2-0.4 0.2-1.2 0.2-0.3 0-0.6 0.1-0.3 0-0.5 0-0.3-0.3-0.4-0.3-0.1 0-0.2-0.1-0.1 0-0.3-0.1-0.6-0.3-0.6-0.3 0 0-0.1-0.1 0 0-0.1 0-0.3-0.4-0.5-0.5 0-0.2-0.3-0.4-0.6-1.4-0.8-3.5 0-0.8 0.3-1.5 0.2-0.7 0.4-1.3 0.3-0.7 0.6-1.2 0.1-0.3 0.3-0.6 0.1-0.3 0.2-0.6 0.3-0.6 0.1-0.8-0.2-0.2 0.1-0.8 0.1-0.4 0.2-0.8l0.4-0.8q0.4-0.8 0.8-1.5 0.4-0.6 0.6-1.6 0.2-0.7 0.6-1.1 0.3-0.4 0.8-0.7 0.3 0.1 0.7-0.1 0.4-0.2 0.6-0.4 0.3 0 0.4-0.2 0.5-0.1 0.5 0 0 0.1 0.1 0.1 0.1 0 0.2 0 0.2 0 0.3 0 0.1 0.6 0.2 0.7 0.1 0.1 0.1 0.3 0 0.1-0.1 0.4 0 0.2 0 0.3-0.3 0.4-0.3 0.6l-0.1 0.1q-0.1 0.2-0.3 0.5-0.1 0.3-0.3 0.7l-0.7 1.2q-0.2 0.5-0.4 0.6-0.2 0.1-0.4 0.6 0 0.2-0.1 0.4 0 0.2-0.1 0.4-0.5 1.2-1.1 2.5-0.3 0.7-0.6 1.3-0.3 0.7-0.5 1.3 0 0.2-0.1 0.4 0 0.2-0.1 0.4-0.1 0.4-0.1 0.8 0 0 0 0.8-0.1 0.7 0 0.9 0.3 0.4 0.3 0.3 0.1 0 0.1 0.1 0.2 0.5 0.2 0.6 0.1 0.1 0.3 0.2 0.2 0 0.5-0.1 0.3-0.1 0.5-0.3 0.5-0.3 0.7-0.6 0.3-0.4 0.5-0.7 0.7-1 1.4-2.2 0.7-1.3 1.3-2.3 0.2-0.6 0.6-1.2 0.4-0.7 0.6-1.2l0.6-1.5q0.1-0.3 0.3-0.6 0.1-0.3 0.3-0.7 0.2-0.5 0.5-0.8 0.3-0.4 0.4-1.1 0.1-0.4 0.3-0.7 0.1-0.2 0.2-0.4 0.1-0.1 0.2-0.3 0.3-0.3 0.4-0.5 0.1-0.2 0.2-0.4 0.5-0.2 0.8-0.2 0.2-0.1 0.6 0 0.3-0.3 0.7-0.3 0.2 0 0.4 0.1 0.1 0 0.3 0 0 0.2 0.1 0.3 0.1 0.1 0.1 0.3 0.2 0.5 0 1.2-0.2 0.7-0.2 1.3-0.1 0.6-0.3 1-0.2 0.5-0.4 1 0 0.4-0.1 0.7 0 0.2-0.1 0.3l-0.1 0.6q-0.1 0.5-0.2 0.9 0 0.4-0.1 0.8-0.2 0.9-0.3 1.9 0 0.3 0 0.6-0.1 0.2-0.1 0.5 0 0.2 0 0.6 0 0.4 0.2 0.5 0.3 0.1 0.4-0.1 0.3-0.2 0.5-0.3 0.1-0.2 0.4-0.5 0.3-0.4 0.4-0.5 0.2-0.3 0.5-0.4 0.2-0.2 0.4-0.4 0.4-0.4 0.7-0.8 0.3-0.4 0.6-0.8 0.6-0.8 1.3-1.3 0.7-0.9 1.4-1.6 0.7-0.8 1.6-1.3 0.3 0.6 0.1 1.1-0.1 0.4-0.4 0.9-0.1 0.1-0.3 0.2-0.2 0.2-0.3 0.3l-0.2 0.3q-0.2 0.1-0.2 0.1 0 0.2-0.1 0.4l-0.2 0.2q-0.3 0.5-0.6 1-0.3 0.4-0.6 0.9-0.4 0.4-0.7 0.8-0.3 0.4-0.6 0.8-0.3 0.2-0.4 0.4-0.1 0.2-0.3 0.4-0.1 0.2-0.1 0.3-0.1 0.1-0.2 0.2-0.1 0.1-0.2 0.2-0.1 0.1-0.1 0.2-0.3 0.4-0.5 0.7-0.2 0.4-0.5 0.7-0.2 0.3-0.3 0.5-0.1 0.3-0.3 0.6-0.4 0.4-0.5 0.4-0.1 0-0.2 0.5-0.4 0.3-0.4 0.4 0 0.2-0.1 0.1-0.1 0.1-0.3 0.1-0.2 0-0.2 0.1-0.3 0.2-0.5 0.4-0.1 0.1-0.4 0.2-0.5 0.1-0.8-0.1-0.2-0.2-0.4-0.6zm-1.2 0l-0.2-1.1q-0.3-0.7-0.1-2.1l0.1-0.9q0.1-0.2 0.1-0.5 0.1-0.3 0.1-0.7 0-0.4 0.1-0.8 0-0.4 0.1-0.8 0.1-0.5 0.2-0.9 0-0.4 0.1-0.8-0.4 0.6-0.7 1.2-0.2 0.7-0.5 1.3-0.5 1.3-1.3 2.3-0.2 0.6-0.4 0.8-0.3 0.2-0.5 0.3-0.3 0.2-0.5 0.8-0.2 0.2-0.3 0.5-0.2 0.3-0.3 0.7-0.2 0.2-0.4 0.5-0.4 0.5-0.5 0.5-0.1 0-0.3 0.2-0.4 0.4-0.7 0.6-0.3 0.2-0.7 0.2-0.5 0.2-1.2 0.2-0.4 0-0.7 0.1-0.2 0-0.5 0-0.2-0.3-0.4-0.3 0 0-0.2-0.1-0.1 0-0.2-0.1-0.6-0.3-0.6-0.3 0 0-0.1-0.1 0 0-0.1 0-0.4-0.4-0.5-0.5-0.1-0.2-0.3-0.4-0.7-1.4-0.8-3.5 0-0.8 0.2-1.5 0.3-0.7 0.5-1.3 0.2-0.7 0.5-1.2 0.2-0.3 0.3-0.6 0.2-0.3 0.3-0.6 0.2-0.6 0.1-0.8-0.2-0.2 0-0.8 0.1-0.4 0.3-0.8l0.4-0.8q0.3-0.8 0.8-1.5 0.3-0.6 0.6-1.6 0.2-0.7 0.6-1.1 0.3-0.4 0.8-0.7 0.2 0.1 0.6-0.1 0.4-0.2 0.6-0.4 0.3 0 0.5-0.2 0.5-0.1 0.5 0 0 0.1 0.1 0.1 0.1 0 0.2 0 0.2 0 0.2 0 0.2 0.6 0.2 0.7 0.1 0.1 0.1 0.3 0 0.1 0 0.4 0 0.2-0.1 0.3-0.2 0.4-0.2 0.6l-0.1 0.1q-0.1 0.2-0.3 0.5-0.1 0.3-0.3 0.7l-0.7 1.2q-0.2 0.5-0.4 0.6-0.2 0.1-0.4 0.6-0.1 0.2-0.1 0.4 0 0.2-0.1 0.4-0.5 1.2-1.1 2.5-0.3 0.7-0.6 1.3-0.3 0.7-0.5 1.3-0.1 0.2-0.1 0.4-0.1 0.2-0.1 0.4-0.1 0.4-0.1 0.8 0 0 0 0.8-0.1 0.7 0 0.9 0.3 0.4 0.3 0.3 0 0 0.1 0.1 0.1 0.5 0.2 0.6 0.1 0.1 0.3 0.2 0.1 0 0.5-0.1 0.3-0.1 0.4-0.3 0.5-0.3 0.8-0.6 0.2-0.4 0.5-0.7 0.6-1 1.3-2.2 0.7-1.3 1.4-2.3 0.2-0.6 0.6-1.2 0.4-0.7 0.6-1.2l0.6-1.5q0.1-0.3 0.2-0.6 0.2-0.3 0.4-0.7 0.2-0.5 0.5-0.8 0.3-0.4 0.4-1.1 0.1-0.4 0.3-0.7 0.1-0.2 0.2-0.4 0.1-0.1 0.1-0.3 0.4-0.3 0.4-0.5 0.1-0.2 0.3-0.4 0.5-0.2 0.7-0.2 0.3-0.1 0.7 0 0.3-0.3 0.7-0.3 0.2 0 0.3 0.1 0.2 0 0.4 0 0 0.2 0.1 0.3 0.1 0.1 0.1 0.3 0.2 0.5 0 1.2-0.2 0.7-0.2 1.3-0.1 0.6-0.3 1-0.3 0.5-0.4 1-0.1 0.4-0.1 0.7-0.1 0.2-0.1 0.3l-0.1 0.6q-0.1 0.5-0.2 0.9-0.1 0.4-0.2 0.8-0.1 0.9-0.2 1.9 0 0.3-0.1 0.6 0 0.2 0 0.5 0 0.2 0 0.6 0 0.4 0.2 0.5 0.2 0.1 0.4-0.1 0.2-0.2 0.5-0.3 0.1-0.2 0.4-0.5 0.2-0.4 0.4-0.5 0.2-0.3 0.4-0.4 0.3-0.2 0.5-0.4 0.3-0.4 0.7-0.8 0.3-0.4 0.6-0.8 0.6-0.8 1.3-1.3 0.7-0.9 1.4-1.6 0.7-0.8 1.5-1.3 0.4 0.6 0.2 1.1-0.2 0.4-0.4 0.9-0.1 0.1-0.3 0.2-0.2 0.2-0.3 0.3l-0.3 0.3q-0.1 0.1-0.2 0.1 0 0.2-0.1 0.4l-0.2 0.2q-0.2 0.5-0.5 1-0.3 0.4-0.7 0.9-0.3 0.4-0.6 0.8-0.4 0.4-0.7 0.8-0.3 0.2-0.3 0.4-0.1 0.2-0.3 0.4-0.1 0.2-0.2 0.3 0 0.1-0.1 0.2-0.1 0.1-0.2 0.2-0.1 0.1-0.2 0.2-0.2 0.4-0.4 0.7-0.2 0.4-0.5 0.7-0.2 0.3-0.3 0.5-0.1 0.3-0.4 0.6-0.3 0.4-0.4 0.4-0.2 0-0.3 0.5-0.3 0.3-0.3 0.4-0.1 0.2-0.2 0.1-0.1 0.1-0.3 0.1-0.2 0-0.2 0.1-0.2 0.2-0.4 0.4-0.2 0.1-0.4 0.2-0.6 0.1-0.8-0.1-0.2-0.2-0.5-0.6zm13.5-6.3q0.2 0 0.3-0.2 0.1-0.2 0.3-0.4 0.1 0 0.2-0.1 0 0 0.1-0.1 0.1 0 0.2-0.1 0-0.1 0.1-0.1 0.5-0.5 0.9-1.1 0.4-0.5 0.9-1 0.3-0.4 0.6-0.7 0.3-0.4 0.5-0.7 0.6-0.6 1.1-1.5 0.6-0.6 1.2-1.4 0.4-0.3 0.7-0.6 0.2-0.3 0.6-0.6 0.3-0.3 0.5-0.7 0.3-0.4 0.6-0.6 0.4-0.5 0.7-0.7 0.4-0.1 0.8-0.6 0.6-0.4 1.1-0.1 0.5 0.3 0.8 0.7 0.1 0.5 0.5 1 0 0.1 0.1 0.2 0 0 0.1 0.1 0 0.1 0 0.4 0 0.6-0.1 1.2-0.1 0.3-0.1 0.6-0.1 0.3-0.1 0.6 0 0.3-0.1 0.7 0 0.3 0 0.7 0 0.7-0.2 1.5 0.2 0.4 0.4 0.9 0.2 0.5 0.4 0.7 0.2 0 0.4-0.4 0.1-0.1 0.2-0.2 0.1-0.1 0.3-0.2 0.3-0.2 0.4-0.4 0.2-0.2 0.4-0.4 0.1-0.2 0.3-0.4 0.3-0.3 0.5-0.7 0.2-0.2 0.3-0.3 0.2-0.2 0.3-0.4 0.1-0.1 0.3-0.3 0.2-0.2 0.3-0.4 0.2-0.2 0.3-0.4 0.2-0.2 0.3-0.4 0.2-0.2 0.3-0.5 0.2-0.2 0.3-0.4 0.2-0.2 0.3-0.3 0.2-0.1 0.2-0.3 0.4-0.2 0.6-0.6 0.2-0.4 0.7-0.6 0.4 0 0.5 0 0.1 0.1 0.4 0.4 0.2 0.2 0.3 0.5 0.1 0.4 0.3 0.6 0.4 0.9 0.6 1.1 0.1 0.5 0.1 0.9l-0.2 0.8q-0.1 0.3-0.1 0.6 0 0.1 0 0.2 0 0.1-0.1 0.3 0 0.1 0 0.2-0.3 1.8-0.8 3.6 0.1 0.3 0.2 0.7 0.1 0.4 0.1 1 0.2 0 0.5 0 0.2-0.1 0.4-0.1 0.9-0.5 1.6-1.2 0.6-0.5 1.2-1 0.6-0.6 1.1-1.1 0.2-0.1 0.3-0.4 0.2-0.2 0.4-0.3 0.4-0.5 0.8-0.7 0.4-0.3 0.8-0.6 0.2-0.1 0.3-0.3 0.2-0.1 0.3-0.3 0.2-0.3 0.6-0.6 0.4-0.3 0.7-0.5 0.6 0 0.6 0.2l0.1 0.5q-0.5 0.5-1 1-0.5 0.5-1 1-0.1 0.1-0.2 0.2-0.1 0.1-0.4 0.2-0.1 0.2-0.2 0.3 0 0.1-0.3 0.3-0.1 0.1-0.2 0.3-0.1 0.1-0.3 0.2-0.2 0.2-0.4 0.5-0.3 0.3-0.6 0.5-0.2 0.3-0.4 0.5-0.2 0.3-0.4 0.6-0.1 0.3-0.4 0.6-0.2 0.1-0.4 0.3l-0.3 0.3q-0.1 0.3-0.1 0.5 0 0.3-0.3 0.5-0.3 0.4-0.4 0.5 0 0.2-0.1 0.3-0.1 0.1-0.3 0.2-0.1 0-0.2 0.1-0.1 0.1-0.2 0.1-0.2 0.1-0.3 0.4-0.1 0.1-0.2 0.2-0.1 0.1-0.2 0.2-0.2 0.1-0.3 0.2-0.2 0.1-0.3 0.2-0.2 0.2-0.6 0.3-0.4 0.4-0.6 0.4-0.2 0-0.4 0-0.1 0.1-0.2-0.1-0.1-0.2-0.3-0.2-0.2-0.3-0.4-0.2-0.1 0-0.3-0.1-0.4-0.6-0.4-0.9 0-0.1 0-0.3 0-0.2 0-0.4-0.1-0.8-0.2-1.6-0.1-0.8-0.1-1.7 0-0.4 0-0.7 0.1-0.4 0.1-0.7 0-0.1 0-0.4 0-0.2 0-0.3 0-0.4 0.1-0.8 0.1-0.3 0-0.7-0.2 0.4-0.5 0.7-0.2 0.2-0.3 0.4-0.2 0.2-0.3 0.4-0.1 0.2-0.3 0.4-0.6 0.4-1 0.9-0.5 0.5-1.2 0.8-0.3 0.3-0.6 0.7-0.2 0.3-0.5 0.6-0.3 0.3-0.6 0.6-0.2 0.3-0.5 0.7-0.7 1.1-1.5 1.7-0.3 0.1-0.5 0.1-0.2 0-0.3-0.1-0.9-0.6-1.1-1.6-0.1-1 0.1-2.3-0.2-0.5 0-1.4 0.3-0.9 0.1-1.4 0.1-0.4 0.1-0.7 0.1-0.5 0.2-0.9 0.1-0.4 0.2-0.8 0.1-0.4 0.1-0.8 0.2-0.4 0.1-0.6-0.2-0.2-0.3-0.4-0.7 0.5-1.4 1.3-0.6 0.7-1.3 1.4-0.1 0.2-0.3 0.4-0.2 0.1-0.3 0.3-0.2 0.2-0.3 0.4-0.2 0.2-0.4 0.3l-0.6 0.7q-0.4 0.4-0.6 0.8-0.3 0.5-0.5 0.6l-0.2 0.3q-0.2 0.1-0.4 0.3-0.1 0.1-0.2 0.3-0.1 0.1-0.4 0.2l-0.3 0.2q-0.3 0.2-0.6 0.6-0.2 0.3-0.4 0.6-0.2 0.2-0.4 0.4-0.2 0.2-0.3 0.4-0.3 0.5-0.7 1-0.1 0.2-0.3 0.4-0.1 0.2-0.3 0.5 0 0.2-0.2 0.5l-0.4 0.5q-0.1 0.1-0.2 0.2 0 0.1-0.1 0.2-0.2 0.3-0.4 0.4l-0.3 0.1q-0.3 0-0.4 0.1-0.1 0.1-0.2 0.2-0.2 0-0.3 0.1-0.3 0.1-0.6 0.1l-0.5-0.1q-0.2 0-0.5-0.2 0-0.4-0.2-0.6 0.1-0.7 0.3-1.3 0.2-0.6 0.3-1.2 0.3-0.5 0.5-1.2 0.1-0.6 0.4-1.3 0.2-0.6 0.4-1.3l0.5-1.3q0.1-0.3 0.1-0.6 0.1-0.3 0.2-0.6 0.1-0.5 0.3-0.9 0.3-0.6 0.3-0.8 0.5-0.7 0.5-1.4 0.2-0.3 0.3-0.9 0.1-0.6 0.2-1 0.1-0.2 0.2-0.4 0-0.2 0.1-0.4 0-0.4 0-0.5 0-0.2 0.1-0.5 0.1-0.2 0.2-0.3 0.1-0.1 0.2-0.2 0-0.1 0.1-0.2 0.1-0.1 0.2-0.2 0.2 0 0.3-0.3 0.1-0.2 0.2-0.3 0.5-0.2 0.6-0.3 0-0.1 0.1-0.1l0.6-0.4q0 0 0.1 0 0.1-0.1 0.2-0.1 0.1-0.1 0.1-0.1 0.1-0.1 0.1-0.1 0.1 0 0.1 0 0.1-0.1 0.2-0.1 0.1-0.1 0.3-0.3 0.2-0.2 0.3-0.3 0.5 0.2 0.8 0.6 0.3 0.5 0.1 1.2 0 0.3-0.1 0.5-0.1 0.2-0.2 0.4 0 0.2-0.1 0.6 0 0.3-0.1 0.4-0.3 0.7-0.4 1-0.1 0.4-0.2 0.6-0.1 0.4-0.3 0.7-0.1 0.4-0.2 0.7-0.1 0.3-0.3 0.5-0.2 0.3-0.2 0.4-0.2 0.2-0.3 0.4-0.1 0.3-0.3 0.5-0.1 0.3-0.3 0.6-0.3 0.5-0.6 1l-0.5 1.1q-0.2 0.5-0.4 1.1zm-1.1 0q0.2 0 0.3-0.2 0.1-0.2 0.3-0.4 0.1 0 0.1-0.1 0.1 0 0.2-0.1 0.1 0 0.1-0.1 0.1-0.1 0.2-0.1 0.5-0.5 0.9-1.1 0.4-0.5 0.9-1 0.3-0.4 0.5-0.7 0.3-0.4 0.6-0.7 0.5-0.6 1-1.5 0.7-0.6 1.3-1.4 0.4-0.3 0.6-0.6 0.3-0.3 0.7-0.6 0.2-0.3 0.5-0.7 0.2-0.4 0.6-0.6 0.3-0.5 0.7-0.7 0.4-0.1 0.7-0.6 0.7-0.4 1.2-0.1 0.5 0.3 0.8 0.7 0.1 0.5 0.5 1 0 0.1 0 0.2 0.1 0 0.1 0.1 0.1 0.1 0.1 0.4 0 0.6-0.1 1.2-0.1 0.3-0.1 0.6-0.1 0.3-0.1 0.6-0.1 0.3-0.1 0.7 0 0.3 0 0.7-0.1 0.7-0.2 1.5 0.2 0.4 0.4 0.9 0.1 0.5 0.4 0.7 0.1 0 0.4-0.4 0.1-0.1 0.2-0.2 0.1-0.1 0.2-0.2 0.3-0.2 0.5-0.4 0.2-0.2 0.3-0.4 0.2-0.2 0.3-0.4 0.3-0.3 0.6-0.7 0.1-0.2 0.3-0.3 0.1-0.2 0.3-0.4 0.1-0.1 0.3-0.3 0.1-0.2 0.3-0.4 0.2-0.2 0.3-0.4 0.2-0.2 0.3-0.4 0.2-0.2 0.3-0.5 0.1-0.2 0.3-0.4 0.2-0.2 0.3-0.3 0.1-0.1 0.2-0.3 0.3-0.2 0.6-0.6 0.2-0.4 0.6-0.6 0.4 0 0.6 0 0.1 0.1 0.3 0.4 0.3 0.2 0.4 0.5 0.1 0.4 0.3 0.6 0.4 0.9 0.6 1.1 0.1 0.5 0 0.9l-0.2 0.8q0 0.3 0 0.6 0 0.1 0 0.2-0.1 0.1-0.1 0.3 0 0.1 0 0.2-0.3 1.8-0.8 3.6 0 0.3 0.2 0.7 0.1 0.4 0.1 1 0.2 0 0.4 0 0.3-0.1 0.4-0.1 0.9-0.5 1.7-1.2 0.6-0.5 1.1-1 0.7-0.6 1.2-1.1 0.2-0.1 0.3-0.4 0.2-0.2 0.3-0.3 0.5-0.5 0.9-0.7 0.4-0.3 0.8-0.6 0.2-0.1 0.3-0.3 0.1-0.1 0.3-0.3 0.2-0.3 0.6-0.6 0.4-0.3 0.7-0.5 0.6 0 0.6 0.2l0.1 0.5q-0.6 0.5-1.1 1-0.4 0.5-0.9 1-0.2 0.1-0.3 0.2-0.1 0.1-0.3 0.2-0.1 0.2-0.2 0.3-0.1 0.1-0.3 0.3-0.1 0.1-0.2 0.3-0.2 0.1-0.3 0.2-0.2 0.2-0.4 0.5-0.3 0.3-0.6 0.5-0.2 0.3-0.4 0.5-0.3 0.3-0.4 0.6-0.2 0.3-0.4 0.6-0.3 0.1-0.4 0.3l-0.3 0.3q-0.1 0.3-0.1 0.5-0.1 0.3-0.3 0.5-0.3 0.4-0.4 0.5 0 0.2-0.2 0.3-0.1 0.1-0.3 0.2-0.1 0-0.1 0.1-0.1 0.1-0.2 0.1-0.2 0.1-0.4 0.4-0.1 0.1-0.2 0.2-0.1 0.1-0.2 0.2-0.1 0.1-0.3 0.2-0.1 0.1-0.2 0.2-0.2 0.2-0.6 0.3-0.5 0.4-0.7 0.4-0.1 0-0.4 0-0.1 0.1-0.2-0.1 0-0.2-0.2-0.2-0.3-0.3-0.4-0.2-0.2 0-0.3-0.1-0.4-0.6-0.4-0.9 0-0.1 0-0.3 0-0.2-0.1-0.4 0-0.8-0.1-1.6-0.1-0.8-0.2-1.7 0-0.4 0.1-0.7 0.1-0.4 0.1-0.7 0-0.1 0-0.4-0.1-0.2-0.1-0.3 0.1-0.4 0.2-0.8 0-0.3 0-0.7-0.3 0.4-0.5 0.7-0.2 0.2-0.3 0.4-0.2 0.2-0.3 0.4-0.2 0.2-0.3 0.4-0.6 0.4-1.1 0.9-0.4 0.5-1.1 0.8-0.3 0.3-0.6 0.7-0.3 0.3-0.5 0.6-0.3 0.3-0.6 0.6-0.3 0.3-0.6 0.7-0.7 1.1-1.5 1.7-0.3 0.1-0.4 0.1-0.2 0-0.4-0.1-0.8-0.6-1-1.6-0.2-1 0-2.3-0.2-0.5 0.1-1.4 0.2-0.9 0.1-1.4 0-0.4 0.1-0.7 0.1-0.5 0.2-0.9 0.1-0.4 0.2-0.8 0-0.4 0.1-0.8 0.2-0.4 0-0.6-0.1-0.2-0.2-0.4-0.7 0.5-1.4 1.3-0.6 0.7-1.3 1.4-0.2 0.2-0.3 0.4-0.2 0.1-0.3 0.3-0.2 0.2-0.4 0.4-0.1 0.2-0.3 0.3l-0.7 0.7q-0.3 0.4-0.6 0.8-0.2 0.5-0.4 0.6l-0.3 0.3q-0.2 0.1-0.3 0.3-0.1 0.1-0.2 0.3-0.2 0.1-0.4 0.2l-0.4 0.2q-0.2 0.2-0.5 0.6-0.3 0.3-0.5 0.6-0.1 0.2-0.3 0.4-0.3 0.2-0.4 0.4-0.2 0.5-0.6 1-0.1 0.2-0.3 0.4-0.1 0.2-0.3 0.5 0 0.2-0.2 0.5l-0.4 0.5q-0.1 0.1-0.2 0.2-0.1 0.1-0.2 0.2-0.1 0.3-0.4 0.4l-0.3 0.1q-0.2 0-0.3 0.1-0.1 0.1-0.3 0.2-0.1 0-0.2 0.1-0.3 0.1-0.7 0.1l-0.5-0.1q-0.2 0-0.4-0.2 0-0.4-0.2-0.6 0.1-0.7 0.3-1.3 0.1-0.6 0.2-1.2 0.4-0.5 0.5-1.2 0.2-0.6 0.5-1.3 0.2-0.6 0.4-1.3l0.4-1.3q0.1-0.3 0.2-0.6 0.1-0.3 0.1-0.6 0.2-0.5 0.4-0.9 0.2-0.6 0.3-0.8 0.4-0.7 0.4-1.4 0.3-0.3 0.4-0.9 0.1-0.6 0.2-1 0.1-0.2 0.2-0.4 0-0.2 0.1-0.4 0-0.4 0-0.5 0-0.2 0.1-0.5 0.1-0.2 0.2-0.3 0-0.1 0.1-0.2 0.1-0.1 0.2-0.2 0.1-0.1 0.2-0.2 0.1 0 0.2-0.3 0.2-0.2 0.3-0.3 0.5-0.2 0.5-0.3 0.1-0.1 0.1-0.1l0.7-0.4q0 0 0.1 0 0.1-0.1 0.1-0.1 0.1-0.1 0.2-0.1 0.1-0.1 0.1-0.1 0 0 0.1 0 0.1-0.1 0.2-0.1 0.1-0.1 0.3-0.3 0.2-0.2 0.3-0.3 0.4 0.2 0.7 0.6 0.3 0.5 0.2 1.2 0 0.3-0.1 0.5-0.1 0.2-0.2 0.4-0.1 0.2-0.1 0.6 0 0.3-0.1 0.4-0.3 0.7-0.4 1-0.1 0.4-0.2 0.6-0.2 0.4-0.3 0.7-0.1 0.4-0.2 0.7-0.1 0.3-0.3 0.5-0.2 0.3-0.3 0.4-0.1 0.2-0.2 0.4-0.2 0.3-0.3 0.5-0.2 0.3-0.3 0.6-0.3 0.5-0.6 1l-0.5 1.1q-0.2 0.5-0.4 1.1z"/>
	</g>
</svg>